<svg width="12" height="14" viewBox="0 0 12 14" fill="none" xmlns="http://www.w3.org/2000/svg">
<path d="M6 9.33318V6.99985M6 4.66651H6.00583M0.75 4.63236V9.36734C0.75 9.56721 0.75 9.66715 0.779449 9.75628C0.805503 9.83513 0.848092 9.90751 0.904369 9.96858C0.967983 10.0376 1.05534 10.0861 1.23007 10.1832L5.54673 12.5814C5.71217 12.6733 5.79489 12.7192 5.88249 12.7372C5.96002 12.7532 6.03998 12.7532 6.11751 12.7372C6.20511 12.7192 6.28783 12.6733 6.45327 12.5814L10.7699 10.1832C10.9447 10.0861 11.032 10.0376 11.0956 9.96858C11.1519 9.90751 11.1945 9.83513 11.2206 9.75628C11.25 9.66715 11.25 9.56721 11.25 9.36734V4.63236C11.25 4.43248 11.25 4.33254 11.2206 4.24341C11.1945 4.16456 11.1519 4.09218 11.0956 4.03111C11.032 3.96208 10.9447 3.91354 10.7699 3.81647L6.45327 1.41833C6.28783 1.32642 6.20511 1.28046 6.11751 1.26245C6.03998 1.2465 5.96002 1.2465 5.88249 1.26245C5.79489 1.28046 5.71217 1.32642 5.54673 1.41833L1.23007 3.81648C1.05534 3.91354 0.967983 3.96208 0.904369 4.03111C0.848092 4.09218 0.805503 4.16456 0.779449 4.24341C0.75 4.33254 0.75 4.43248 0.75 4.63236Z" stroke="#FDC24F" stroke-linecap="square"/>
</svg>
