<svg width="20" height="20" viewBox="0 0 20 20" fill="none" xmlns="http://www.w3.org/2000/svg">
<path d="M15.0763 14.8486C15.0763 14.8299 16.0735 14.0202 17.2928 13.0448C18.512 12.0726 19.5217 11.2754 19.5342 11.2754C19.5498 11.2754 19.6343 11.3285 19.7218 11.3911C19.8156 11.463 19.9062 11.5599 19.9406 11.6349C19.9719 11.7037 20 11.8131 20 11.8756C20 11.9413 19.9813 12.0413 19.9594 12.0944C19.9344 12.1507 19.7968 12.3445 19.653 12.5259C19.5061 12.7072 19.1497 13.1511 18.859 13.5106C18.5682 13.8701 18.1743 14.3578 17.9868 14.5891C17.7992 14.8205 17.5116 15.18 17.3459 15.3832C17.1489 15.627 17.0051 15.774 16.9301 15.8115C16.8645 15.8459 16.7488 15.8709 16.6706 15.8709C16.5925 15.8709 16.4831 15.8521 16.4299 15.8271C16.3737 15.8021 16.0454 15.5801 15.7015 15.3332C15.3576 15.0831 15.0763 14.8642 15.0763 14.8486Z" fill="#848484"/>
<path d="M4.08777 11.5726C4.1034 11.5038 4.22533 11.2912 4.35663 11.0974V11.0943C4.4973 10.8911 4.61922 10.7441 4.64736 10.7441C4.67549 10.7441 5.74465 11.4944 7.02325 12.4104C8.30498 13.3264 9.35538 14.0891 9.36163 14.1048C9.36476 14.1204 9.26785 14.283 9.1428 14.4643C8.96461 14.7206 8.88333 14.8082 8.77391 14.8644C8.66762 14.9207 8.59572 14.9363 8.45817 14.927C8.2956 14.9176 8.25184 14.8988 7.95173 14.6894C7.77041 14.5675 7.60472 14.4643 7.58909 14.4643C7.57033 14.4643 7.46404 14.5643 7.34525 14.6862C7.22958 14.8082 6.98886 15.0333 6.80755 15.1833C6.62623 15.3334 6.31674 15.5678 6.11979 15.6991C5.92284 15.8336 5.53519 16.0524 5.26009 16.1868C4.98499 16.3212 4.56921 16.4932 4.33787 16.5682C4.10653 16.6464 3.77516 16.7401 3.60322 16.7745C3.43128 16.812 3.14992 16.8652 2.97798 16.8902C2.80604 16.9152 2.33399 16.9465 1.18668 16.9809L1.17418 17.6217C1.1648 18.2345 1.16168 18.272 1.08665 18.4189C1.021 18.5471 0.974105 18.5908 0.836553 18.6627C0.742768 18.7096 0.627099 18.7471 0.577081 18.7471C0.530188 18.7471 0.439529 18.7253 0.373879 18.6971C0.311356 18.6721 0.223823 18.619 0.186309 18.5815C0.145669 18.5439 0.0831451 18.4595 0.0518834 18.397C-0.00438777 18.2813 -0.00751394 18.1719 0.00811693 11.979L0.0862713 11.8664C0.130038 11.8008 0.214444 11.7164 0.273842 11.6789C0.358248 11.6195 0.427024 11.6038 0.573954 11.6038C0.727137 11.6038 0.786534 11.6195 0.892824 11.6882C0.967852 11.7383 1.05539 11.832 1.0929 11.9071C1.15855 12.0321 1.1648 12.0884 1.18043 13.4327H1.91508C2.54032 13.4327 2.69663 13.4233 2.9686 13.367C3.1468 13.3295 3.39689 13.2576 3.52506 13.2076C3.65324 13.1544 3.8283 13.0794 3.91583 13.0356C4.00024 12.9919 4.15655 12.8981 4.25971 12.8262C4.36288 12.7574 4.50043 12.6511 4.56608 12.5886C4.63173 12.5292 4.68487 12.4635 4.68175 12.4479C4.68175 12.4323 4.58796 12.3541 4.47229 12.276C4.35975 12.1978 4.2347 12.0915 4.19406 12.0415C4.15342 11.9915 4.10653 11.8914 4.08777 11.8227C4.07214 11.7445 4.07214 11.6507 4.08777 11.5726Z" fill="#848484"/>
<path fill-rule="evenodd" clip-rule="evenodd" d="M6.55741 1.04672C6.46363 1.07798 6.34171 1.128 6.29169 1.15301C6.24167 1.18115 6.13226 1.27181 6.05097 1.35309C5.96969 1.43749 5.55079 1.95019 5.11625 2.49101C4.99461 2.6424 4.86146 2.80824 4.72668 2.97612C4.37994 3.40799 4.02236 3.85337 3.82201 4.10099C3.66485 4.29523 3.44386 4.57027 3.22495 4.84271C3.05631 5.05259 2.8889 5.26093 2.75286 5.42962C2.3996 5.86728 2.15264 6.20491 2.09949 6.32058C2.02759 6.47689 2.01196 6.55191 2.01196 6.777C2.00883 7.02084 2.01821 7.06148 2.12137 7.27719C2.20578 7.446 2.28081 7.54604 2.40273 7.65233C2.49651 7.73048 4.79425 9.3811 7.5109 11.3225C10.2275 13.2607 12.5065 14.8738 12.5753 14.9051C12.6441 14.9363 12.7472 14.9644 12.8004 14.9644C12.8567 14.9644 12.9567 14.9426 13.0192 14.9144C13.0849 14.8863 13.5444 14.5393 14.0446 14.1423C14.4231 13.8376 15.2638 13.1667 16.1223 12.4817C16.3912 12.2671 16.6619 12.0511 16.9207 11.8445C18.3056 10.7379 18.9152 10.2345 18.9777 10.1408C19.0434 10.0407 19.0621 9.97195 19.0621 9.84378C19.0621 9.75624 19.0371 9.62807 19.0058 9.56555C18.9683 9.48739 18.8652 9.38423 18.6713 9.24355C18.515 9.12788 18.0367 8.78088 17.6084 8.47139C17.177 8.16189 16.5393 7.70235 16.186 7.446C16.0052 7.31635 15.7514 7.13262 15.4901 6.94347C15.241 6.76319 14.9852 6.57798 14.7793 6.42999C14.3572 6.12676 13.7257 5.67033 13.3725 5.41399C13.1916 5.28434 12.9378 5.10062 12.6765 4.91147C12.4275 4.73118 12.1717 4.54597 11.9657 4.39798C11.5437 4.09474 10.9122 3.63832 10.5589 3.38197C10.2057 3.12875 9.56479 2.66608 9.13651 2.35346C8.90656 2.1885 8.64107 1.99688 8.40493 1.82644C8.19804 1.67712 8.01366 1.54405 7.89542 1.45938C7.6422 1.27806 7.37022 1.10612 7.28581 1.07486C7.20453 1.0436 7.0451 1.01233 6.93256 1.00296C6.78875 0.993577 6.67934 1.00608 6.55741 1.04672ZM14.4664 8.92651C14.3573 8.95138 14.2036 9.02102 14.1243 9.08072C14.04 9.14041 13.926 9.30456 13.8616 9.43887C13.8021 9.57815 13.7476 9.75723 13.7476 9.83682C13.7476 9.91641 13.7922 10.0756 13.8417 10.185C13.8864 10.2945 14.0004 10.4437 14.0847 10.5233C14.1739 10.5979 14.3375 10.6825 14.4515 10.7123C14.5705 10.7422 14.744 10.7521 14.8382 10.7372C14.9323 10.7223 15.091 10.6576 15.1852 10.5979C15.2793 10.5332 15.4082 10.4039 15.4677 10.3094C15.5322 10.2149 15.5966 10.0557 15.6164 9.96118C15.6313 9.86667 15.6214 9.70749 15.5916 9.61297C15.5619 9.51846 15.4875 9.36425 15.4231 9.26974C15.3587 9.17523 15.2298 9.06082 15.1356 9.01107C15.0414 8.9663 14.8927 8.91656 14.8134 8.90661C14.734 8.89169 14.5754 8.90164 14.4664 8.92651Z" fill="#848484"/>
</svg>
