<svg width="36" height="36" viewBox="0 0 36 36" fill="none" xmlns="http://www.w3.org/2000/svg">
<path fill-rule="evenodd" clip-rule="evenodd" d="M16.2321 7.22338C15.7988 7.29905 15.1798 7.43664 14.8565 7.53983C14.5332 7.63614 13.9761 7.8494 13.6185 8.00075C13.2608 8.15898 12.7312 8.42728 12.4492 8.60614C12.1672 8.77813 11.7339 9.06706 11.4862 9.25281C11.2386 9.43167 10.7503 9.85819 10.3995 10.2022C10.0418 10.5461 9.54662 11.1102 9.29213 11.4473C9.03764 11.7844 8.74188 12.2247 8.62496 12.4105C8.51491 12.6031 8.29481 13.0158 8.13661 13.3392C7.97842 13.6625 7.75832 14.2197 7.64139 14.5775C7.52446 14.9352 7.35939 15.5681 7.27685 15.9878C7.14616 16.6138 7.11865 16.9715 7.11865 18.0172C7.12553 19.0491 7.15304 19.4343 7.27685 20.0466C7.35939 20.4663 7.51758 21.0854 7.63451 21.4225C7.75144 21.7596 8.02656 22.4131 8.24666 22.8672C8.47364 23.3212 8.85193 23.9748 9.09955 24.3119C9.34028 24.6489 9.75297 25.158 10.0143 25.4401C10.2757 25.7221 10.7228 26.1418 11.0048 26.3757C11.2868 26.6096 11.7683 26.9673 12.0709 27.1737C12.3735 27.3732 12.9031 27.669 13.2402 27.8272C13.5772 27.9923 14.1206 28.2125 14.4438 28.3294C14.7671 28.4464 15.4136 28.6252 15.8882 28.7284C16.6311 28.8867 16.9131 28.9142 17.9861 28.9142C19.0109 28.9142 19.3617 28.8867 20.0151 28.756C20.4484 28.6734 21.0881 28.5083 21.4251 28.3913C21.7621 28.2813 22.3537 28.0405 22.7319 27.8616C23.1102 27.6828 23.6674 27.3732 23.97 27.1737C24.2726 26.9673 24.7335 26.6302 24.9948 26.417C25.2562 26.2037 25.7033 25.784 25.9853 25.4814C26.2673 25.1787 26.6869 24.6696 26.9207 24.3462C27.1477 24.0229 27.5329 23.3763 27.7736 22.9016C28.0143 22.4269 28.3101 21.7183 28.4339 21.3193C28.5646 20.9203 28.7228 20.2736 28.7916 19.8746C28.8879 19.3587 28.9222 18.8152 28.9222 17.9828C28.9222 17.1297 28.8879 16.6275 28.7916 16.1253C28.7228 15.747 28.5783 15.1553 28.4683 14.8183C28.3651 14.4812 28.2 14.0134 28.1106 13.7863C28.0143 13.5593 27.863 13.236 27.7736 13.064C27.6842 12.892 27.5191 12.6031 27.4091 12.4105C27.299 12.2247 27.0033 11.7844 26.7488 11.4473C26.5011 11.1102 25.9715 10.5186 25.5726 10.1403C25.1806 9.76188 24.5959 9.26656 24.2795 9.03954C23.9563 8.81252 23.3579 8.45479 22.9383 8.24153C22.5256 8.03515 21.824 7.74621 21.3907 7.60862C20.9574 7.47104 20.3177 7.30593 19.9807 7.24402C19.623 7.17522 18.8733 7.12019 18.1924 7.10643C17.257 7.08579 16.8649 7.11331 16.2321 7.22338ZM17.0579 10.794C16.8102 10.8284 16.3288 10.9385 15.9917 11.0348C15.6547 11.138 15.1389 11.3306 14.8569 11.4751C14.5749 11.6127 14.1415 11.8672 13.8939 12.0323C13.6463 12.1974 13.1992 12.5827 12.8966 12.8854C12.5871 13.1949 12.2157 13.6283 12.0575 13.8554C11.9062 14.0824 11.6585 14.5158 11.5072 14.8185C11.3559 15.1212 11.1496 15.6509 11.0464 15.988C10.9432 16.3526 10.84 16.9029 10.8057 17.3295C10.7781 17.7285 10.7781 18.3476 10.8057 18.7053C10.84 19.0631 10.9432 19.6409 11.0395 19.978C11.1427 20.3151 11.3559 20.8792 11.521 21.2163C11.6861 21.5534 11.9749 22.035 12.1538 22.2826C12.3326 22.5303 12.6971 22.9431 12.9585 23.2045C13.2267 23.459 13.6945 23.8374 13.9971 24.0369C14.2997 24.2364 14.7468 24.4978 14.9944 24.6079C15.242 24.7248 15.7235 24.9037 16.0605 25.0069C16.6452 25.1858 16.7552 25.1995 18.0208 25.1995C19.2795 25.1995 19.3964 25.1858 19.9673 25.0138C20.2974 24.9106 20.772 24.7317 21.0334 24.6148C21.2879 24.5047 21.7556 24.2295 22.0789 24.0163C22.4021 23.803 22.8905 23.3902 23.1725 23.1082C23.4476 22.8261 23.8397 22.3446 24.046 22.0419C24.2455 21.7392 24.5068 21.2782 24.6238 21.0099C24.7407 20.7416 24.9195 20.2463 25.0158 19.9092C25.1121 19.5721 25.2084 18.9943 25.2359 18.6365C25.2634 18.2788 25.2634 17.6734 25.229 17.2951C25.2015 16.9098 25.1052 16.3526 25.0021 16.0224C24.9058 15.699 24.7201 15.2037 24.5825 14.9217C24.4449 14.6396 24.2042 14.2062 24.0391 13.9585C23.8741 13.7109 23.5577 13.3119 23.3307 13.0642C23.1106 12.8166 22.7598 12.4863 22.5535 12.3281C22.3471 12.1699 21.9757 11.9154 21.7212 11.764C21.4598 11.6058 21.0128 11.3856 20.7239 11.2687C20.4281 11.1517 19.9398 11.0004 19.6371 10.9247C19.3345 10.8559 18.7292 10.7803 18.2959 10.7665C17.8626 10.7459 17.3055 10.7596 17.0579 10.794Z" fill="#848484"/>
<path fill-rule="evenodd" clip-rule="evenodd" d="M17.0578 12.101C16.8514 12.1354 16.4319 12.2454 16.1292 12.3486C15.8266 12.4518 15.407 12.6307 15.2007 12.7476C14.9943 12.8577 14.7123 13.0297 14.5817 13.126C14.451 13.2154 14.1415 13.4837 13.9076 13.7108C13.6669 13.9447 13.3505 14.2818 13.206 14.4744C13.0685 14.667 12.8415 15.0316 12.7108 15.2999C12.5733 15.5682 12.4013 15.9672 12.3256 16.1942C12.25 16.4213 12.1537 16.9028 12.1055 17.2605C12.0574 17.6527 12.0436 18.1342 12.0712 18.4644C12.0987 18.7671 12.1743 19.2281 12.2431 19.4964C12.3119 19.7646 12.477 20.2256 12.6145 20.5283C12.759 20.831 13.0203 21.2781 13.206 21.5258C13.3917 21.7734 13.6875 22.1174 13.8732 22.2894C14.052 22.4614 14.3616 22.7228 14.5473 22.8604C14.7399 22.998 15.1388 23.2319 15.4414 23.3832C15.7441 23.5277 16.2737 23.7203 16.6107 23.8029C17.0647 23.9129 17.4361 23.9542 18.0207 23.9542C18.6054 23.9542 18.9768 23.9129 19.4307 23.8029C19.7677 23.7203 20.2974 23.5277 20.6 23.3832C20.9026 23.2319 21.3497 22.9636 21.5973 22.7778C21.8449 22.5921 22.2026 22.2756 22.3883 22.0693C22.5809 21.8629 22.856 21.5051 23.0005 21.285C23.1518 21.058 23.365 20.6727 23.475 20.4251C23.5851 20.1774 23.7295 19.7646 23.7983 19.4964C23.8671 19.2281 23.9428 18.7534 23.9703 18.43C23.9978 18.0861 23.984 17.6045 23.9359 17.2605C23.8946 16.9372 23.7983 16.4763 23.7158 16.2286C23.6401 15.981 23.4682 15.5682 23.3306 15.2999C23.1999 15.0316 22.9729 14.667 22.8354 14.4744C22.6978 14.2886 22.3539 13.9103 22.0719 13.6488C21.7899 13.3805 21.3291 13.0297 21.0471 12.8577C20.7651 12.6926 20.2767 12.4725 19.9603 12.3624C19.6508 12.2592 19.19 12.1423 18.9355 12.101C18.6741 12.0666 18.2339 12.0391 17.9519 12.0391C17.6699 12.0459 17.2641 12.0735 17.0578 12.101ZM17.4569 14.1029C17.1956 14.1373 16.7622 14.2543 16.4871 14.3712C16.2189 14.4813 15.8131 14.7152 15.593 14.8872C15.3797 15.0592 15.084 15.3412 14.9395 15.5201C14.802 15.7059 14.5888 16.0498 14.4718 16.2975C14.348 16.5451 14.2173 16.9098 14.1761 17.1024C14.1348 17.3019 14.1004 17.6458 14.1004 17.8591C14.0935 18.1893 14.1279 18.2925 14.2724 18.4439C14.4031 18.5952 14.5062 18.6365 14.7194 18.6365C14.9327 18.6365 15.029 18.5952 15.1528 18.4439C15.2628 18.32 15.3247 18.1274 15.3522 17.8454C15.3797 17.6183 15.4692 17.2468 15.5586 17.0198C15.6755 16.7171 15.8337 16.4901 16.1638 16.153C16.5009 15.8159 16.7072 15.6646 17.003 15.5476C17.2231 15.472 17.5945 15.3825 17.8283 15.355C18.1241 15.3206 18.3236 15.2587 18.4474 15.1486C18.5918 15.0317 18.64 14.9285 18.64 14.7496C18.64 14.6189 18.6056 14.4469 18.5712 14.3712C18.5299 14.2956 18.3924 14.1855 18.2617 14.1305C18.131 14.0754 18.0003 14.0342 17.9659 14.0342C17.9475 14.0388 17.8395 14.0526 17.6917 14.0716C17.6189 14.081 17.5363 14.0916 17.4501 14.1029H17.4569Z" fill="#848484"/>
<path fill-rule="evenodd" clip-rule="evenodd" d="M6.94689 3.79072C6.54796 4.10029 5.79136 4.78823 5.26175 5.31795C4.72526 5.85454 4.09247 6.54937 3.84486 6.8727C3.59725 7.19603 3.23271 7.69135 3.04012 7.9734C2.84754 8.25546 2.51739 8.79893 2.30416 9.1773C2.09094 9.55567 1.74704 10.2367 1.54757 10.6908C1.34811 11.1448 1.07298 11.8396 0.9423 12.2386C0.804738 12.6377 0.639664 13.2086 0.557126 13.5113C0.481467 13.814 0.357661 14.3988 0.282002 14.8184C0.206343 15.2381 0.11005 15.9329 0.068781 16.3663C0.0343905 16.7997 0 17.5083 0 17.9348C0 18.3544 0.0343905 19.0974 0.0756591 19.5859C0.116928 20.0674 0.240734 20.9411 0.357661 21.5259C0.467711 22.1106 0.701567 23.0118 0.873519 23.5209C1.03859 24.03 1.33435 24.8073 1.52694 25.2407C1.71953 25.6741 2.03592 26.3277 2.23538 26.6854C2.43485 27.0432 2.765 27.5866 2.96446 27.8893C3.16393 28.192 3.50095 28.6736 3.72105 28.9556C3.93428 29.2377 4.38135 29.7674 4.70462 30.1251C5.02789 30.4829 5.58502 31.0332 5.9358 31.3497C6.27971 31.6661 6.80244 32.0995 7.08445 32.3128C7.36645 32.526 7.89606 32.8975 8.25373 33.1383C8.61139 33.3791 9.32671 33.785 9.83569 34.0395C10.3447 34.3009 11.06 34.6243 11.4177 34.7687C11.7753 34.9132 12.3531 35.1127 12.6901 35.2228C13.0271 35.326 13.6462 35.4911 14.0657 35.5874C14.4853 35.6837 15.2075 35.8144 15.6821 35.8763C16.2805 35.9589 16.9958 36.0002 18.0206 36.0002C19.0523 36.0002 19.7608 35.9658 20.3592 35.8832C20.8338 35.8144 21.556 35.6837 21.9755 35.5874C22.3951 35.498 23.1173 35.2916 23.5919 35.1402C24.0665 34.9889 24.6649 34.7687 24.9331 34.6518C25.2014 34.5417 25.7379 34.2872 26.1368 34.0877C26.5357 33.8882 27.1548 33.5442 27.5124 33.3172C27.8701 33.097 28.4616 32.6912 28.8193 32.4229C29.1769 32.1546 29.7684 31.6661 30.1261 31.3359C30.4838 31.0126 31.0409 30.4553 31.3504 30.1114C31.6668 29.7605 32.107 29.2377 32.3202 28.9556C32.5403 28.6736 32.8773 28.192 33.0768 27.8893C33.2763 27.5866 33.6064 27.0432 33.8059 26.6854C34.0053 26.3277 34.3217 25.6741 34.5143 25.2407C34.7069 24.8073 34.9889 24.0644 35.1471 23.5897C35.3053 23.115 35.5185 22.3101 35.6286 21.801C35.7386 21.292 35.8624 20.5627 35.9106 20.1844C35.9587 19.7991 36 18.8222 36 17.983C36 17.1505 35.9587 16.1599 35.9106 15.7815C35.8624 15.4032 35.7455 14.7359 35.6561 14.3025C35.5598 13.8691 35.4085 13.2499 35.3122 12.9266C35.2159 12.6033 35.0233 12.0323 34.8857 11.6539C34.7482 11.2755 34.4112 10.5188 34.1429 9.96844C33.8678 9.41808 33.4001 8.59943 33.0974 8.14539C32.7948 7.69135 32.334 7.05844 32.0795 6.73511C31.8181 6.41178 31.316 5.84766 30.9515 5.4693C30.5938 5.09781 30.0642 4.60249 29.7822 4.36171C29.5002 4.12781 29.0531 3.77696 28.7849 3.57746C28.5166 3.38483 28.269 3.21973 28.2346 3.21973C28.2002 3.21973 27.4024 4.23788 26.4669 5.47618C25.5315 6.71447 24.7612 7.74638 24.7612 7.76702C24.7543 7.78766 24.9675 7.95965 25.222 8.15227C25.4765 8.33801 25.9236 8.70262 26.2056 8.95028C26.4876 9.19794 26.9347 9.65886 27.2029 9.96844C27.4711 10.278 27.877 10.8146 28.1177 11.1586C28.3515 11.5094 28.7023 12.0873 28.8812 12.445C29.0669 12.8028 29.3145 13.3462 29.4314 13.6489C29.5483 13.9516 29.7203 14.4951 29.8166 14.8528C29.9129 15.2106 30.016 15.6921 30.0573 15.9191C30.0917 16.1462 30.1536 16.6896 30.1949 17.123C30.2499 17.6871 30.2499 18.1825 30.1949 18.8429C30.1536 19.352 30.0573 20.0812 29.9817 20.4595C29.906 20.8379 29.7203 21.5121 29.569 21.9593C29.4245 22.3995 29.1632 23.0462 28.9912 23.3833C28.8193 23.7273 28.5097 24.2707 28.2965 24.6078C28.0833 24.938 27.7669 25.3783 27.6018 25.5847C27.4299 25.7911 27.0447 26.2245 26.7352 26.541C26.4257 26.8574 25.958 27.2977 25.6897 27.511C25.4215 27.7242 24.9744 28.0544 24.6924 28.2402C24.4104 28.4259 23.867 28.7424 23.4887 28.935C23.1104 29.1276 22.3814 29.4303 21.8724 29.5954C21.3634 29.7674 20.538 29.9738 20.0497 30.0632C19.3619 30.1802 18.8942 30.2214 18.0206 30.2214C17.1471 30.2214 16.6794 30.1802 15.9916 30.0632C15.5032 29.9738 14.6779 29.7674 14.1689 29.5954C13.6599 29.4303 12.9308 29.1276 12.5525 28.935C12.1742 28.7424 11.6034 28.4053 11.2801 28.192C10.9568 27.9856 10.496 27.6417 10.2484 27.4353C10.0008 27.2358 9.58808 26.8505 9.32671 26.5822C9.06534 26.3208 8.68705 25.9012 8.48758 25.6535C8.29499 25.4059 7.9786 24.9724 7.79289 24.6904C7.60031 24.4083 7.30455 23.8993 7.13259 23.5553C6.96752 23.2182 6.71991 22.661 6.58922 22.317C6.45854 21.9799 6.26595 21.3745 6.16966 20.9755C6.06649 20.5765 5.94956 19.9917 5.90829 19.6684C5.86014 19.3451 5.81888 18.6227 5.81888 18.0518C5.81888 17.4876 5.86014 16.724 5.90829 16.3663C5.95644 16.0086 6.08712 15.3757 6.19717 14.956C6.30034 14.5432 6.48605 13.9516 6.60986 13.6489C6.72679 13.3462 6.96064 12.8234 7.13259 12.4794C7.30455 12.1423 7.58655 11.647 7.7585 11.3787C7.93733 11.1104 8.24685 10.6839 8.45319 10.4156C8.66641 10.1473 9.0791 9.68638 9.38861 9.37681C9.69125 9.07411 10.1796 8.64071 10.4685 8.41369C10.7574 8.19355 11.0669 7.95965 11.1563 7.89773L11.3145 7.78766C8.61826 4.21036 7.83416 3.22661 7.77226 3.22661C7.71723 3.22661 7.34582 3.48114 6.94689 3.79072ZM30.2296 8.14541C30.0783 8.20044 29.8375 8.32427 29.6931 8.42058C29.5555 8.5169 29.3423 8.73704 29.2323 8.92278C29.1153 9.10165 28.9915 9.36994 28.9503 9.52129C28.909 9.67264 28.8884 9.98221 28.9021 10.2092C28.9227 10.4913 28.9984 10.7389 29.136 10.9935C29.2529 11.2136 29.4661 11.4613 29.645 11.5989C29.8169 11.7227 30.1058 11.8809 30.2984 11.9428C30.5253 12.0116 30.773 12.0392 31.0206 12.0185C31.2269 11.9979 31.5502 11.9016 31.7428 11.8121C31.9285 11.7158 32.1898 11.5163 32.3205 11.3719C32.4512 11.2205 32.6232 10.966 32.6988 10.794C32.7951 10.5738 32.8364 10.3399 32.8295 10.0029C32.8295 9.63136 32.7882 9.44562 32.6576 9.17732C32.5613 8.99158 32.348 8.70952 32.1761 8.55817C32.0041 8.40683 31.7153 8.22796 31.5296 8.15917C31.3438 8.09725 31.0343 8.04222 30.8486 8.04222C30.656 8.0491 30.3809 8.09037 30.2296 8.14541Z" fill="#848484"/>
<path d="M30.2154 9.81692C30.2636 9.69309 30.3806 9.53487 30.4769 9.46607C30.5663 9.40416 30.7452 9.34912 30.8621 9.34912C30.9859 9.34912 31.1717 9.40416 31.268 9.47295C31.3643 9.53487 31.4744 9.69997 31.5157 9.83068C31.5707 10.0233 31.5638 10.1196 31.4813 10.3122C31.4193 10.4429 31.2886 10.5943 31.1923 10.6425C31.096 10.6837 30.9378 10.725 30.8277 10.725C30.7245 10.725 30.5663 10.67 30.4769 10.6081C30.3806 10.5393 30.2636 10.381 30.2154 10.2641C30.1398 10.0783 30.1398 9.99579 30.2154 9.81692Z" fill="#848484"/>
<path d="M14.8221 0.275177C15.2417 0.192624 15.8607 0.103191 16.1978 0.0687942C16.5348 0.0412765 17.2983 0.00687942 17.8829 0C18.4675 0 19.3067 0.0275177 19.74 0.0687942C20.1733 0.110071 20.9368 0.220141 21.4251 0.309574C21.9135 0.405886 22.5806 0.564112 22.9039 0.660424C23.2272 0.756736 23.7362 0.921842 24.0388 1.02503C24.3414 1.1351 24.7885 1.30709 25.0361 1.4034C25.2837 1.50659 25.779 1.74049 26.1366 1.91936C26.4943 2.09822 26.8588 2.30461 27.0927 2.50411L25.4282 4.71928C24.5134 5.93694 23.7224 6.97573 23.6811 7.02389C23.6055 7.09956 23.5023 7.07204 23.0965 6.89318C22.8214 6.76935 22.3812 6.59048 22.1129 6.49417C21.8447 6.39786 21.3357 6.23963 20.978 6.1502C20.6204 6.06077 20.077 5.9507 19.7744 5.90254C19.4717 5.85438 18.6808 5.81311 18.0205 5.81311C17.3602 5.81311 16.5692 5.85438 16.2665 5.90254C15.9639 5.9507 15.4205 6.06077 15.0629 6.1502C14.7052 6.24651 14.1618 6.41162 13.8592 6.52169C13.5566 6.63176 13.1233 6.81062 12.8963 6.91381C12.628 7.03076 12.4492 7.07892 12.3942 7.03764C12.346 7.00325 11.555 5.97133 8.94824 2.50411L9.09956 2.3734C9.1821 2.30461 9.54664 2.09822 9.9043 1.91936C10.262 1.74049 10.7572 1.50659 11.0048 1.4034C11.2524 1.30021 11.7476 1.11447 12.1053 0.990636C12.463 0.866807 13.0545 0.687942 13.4121 0.59163C13.7698 0.495318 14.4026 0.35085 14.8221 0.275177Z" fill="#848484"/>
</svg>
