<svg width="24" height="25" viewBox="0 0 24 25" fill="none" xmlns="http://www.w3.org/2000/svg">
<path fill-rule="evenodd" clip-rule="evenodd" d="M11.9688 0.75C19.7625 0.75 22.9125 0.76875 23.0938 0.81875C23.2375 0.8625 23.45 0.99375 23.6 1.15C23.7563 1.3 23.8875 1.5125 23.9312 1.65625C23.9812 1.8375 24 4.9875 24 12.75C24 20.5125 23.9812 23.6625 23.9312 23.8438C23.8875 23.9875 23.7563 24.2 23.6 24.35C23.45 24.5063 23.2375 24.6375 23.0938 24.6812C22.9125 24.7312 19.7625 24.75 12 24.75C4.2375 24.75 1.0875 24.7312 0.90625 24.6812C0.7625 24.6375 0.55 24.5063 0.4 24.35C0.225 24.1812 0.1125 24 0.0625 23.8125C0.0125 23.6125 -0.00625 22.8 0.0125 20.9688C0.03125 18.5125 0.0375 18.3937 0.1625 18.1562C0.23125 18.0187 0.4125 17.8188 0.55625 17.7188C0.7875 17.5562 0.875 17.5312 1.25 17.5312C1.625 17.5312 1.7125 17.5562 1.94375 17.7188C2.09375 17.8188 2.26875 18.0063 2.3375 18.125C2.4625 18.3312 2.46875 18.4688 2.53125 22.2188H21.4688V3.28125H2.53125L2.5 5.21875C2.46875 7.03125 2.4625 7.16875 2.3375 7.375C2.26875 7.49375 2.0875 7.68125 1.94375 7.78125C1.75 7.9125 1.58125 7.975 1.35 7.99375C1.10625 8.0125 0.9625 7.98125 0.73125 7.86875C0.5625 7.7875 0.3625 7.63125 0.28125 7.53125C0.20625 7.43125 0.10625 7.23125 0.06875 7.09375C0.025 6.93125 0 6.00625 0 4.375C0 2.7125 0.025 1.825 0.075 1.65625C0.1125 1.51875 0.24375 1.3 0.36875 1.16875C0.49375 1.0375 0.70625 0.89375 0.84375 0.84375C1.05625 0.76875 2.75625 0.75625 11.9688 0.75ZM9.81875 8.4375C10.0625 8.4375 10.2688 8.48125 10.425 8.55625C10.55 8.625 11.4187 9.44375 12.3562 10.3875C13.2875 11.325 14.0875 12.1687 14.1187 12.2688C14.1562 12.3625 14.1875 12.575 14.1875 12.75C14.1875 12.9187 14.1562 13.1375 14.1187 13.2312C14.0875 13.3313 13.2875 14.175 12.3562 15.1125C11.4187 16.0563 10.55 16.875 10.425 16.9438C10.2688 17.0188 10.0625 17.0625 9.8125 17.0625C9.48125 17.0625 9.40625 17.0375 9.175 16.8563C9.025 16.7438 8.84375 16.5375 8.76875 16.4C8.675 16.2437 8.625 16.05 8.625 15.8562C8.625 15.6875 8.675 15.4563 8.75 15.3125C8.81875 15.175 9.09375 14.85 9.3625 14.5938C9.66875 14.2875 9.81875 14.1 9.78125 14.0625C9.74375 14.0312 7.8625 13.9937 0.84375 13.9688L0.61875 13.8125C0.49375 13.725 0.33125 13.5875 0.2625 13.5C0.19375 13.4125 0.10625 13.2188 0.0625 13.0625C0.00625 12.85 0.00625 12.7 0.05625 12.4688C0.10625 12.2375 0.1875 12.0875 0.3875 11.8875C0.5375 11.7375 0.75625 11.5938 0.875 11.5562C1 11.525 2.9375 11.5 5.425 11.5C8.24375 11.5 9.7625 11.4812 9.78125 11.4375C9.8 11.4 9.6 11.1625 9.34375 10.9062C9.0875 10.65 8.81875 10.325 8.75 10.1875C8.675 10.0437 8.625 9.8125 8.625 9.6375C8.625 9.45 8.675 9.25625 8.76875 9.1C8.84375 8.9625 9.03125 8.75625 9.175 8.64375C9.4125 8.4625 9.49375 8.4375 9.81875 8.4375Z" fill="#848484"/>
</svg>
