<svg width="24" height="24" viewBox="0 0 24 24" fill="none" xmlns="http://www.w3.org/2000/svg">
<path d="M7.60713 0.427166C8.05368 0.229578 8.45281 0.0517493 8.49627 0.0319905C8.53974 0.0161835 8.61483 0.000376479 8.66225 0.000376479C8.71362 -0.00357528 8.82032 0.024087 8.89935 0.0596528C8.98234 0.0912669 9.08509 0.150543 9.1246 0.186109C9.16412 0.221675 9.2313 0.32442 9.27082 0.411359C9.33405 0.549671 9.3459 0.68403 9.3459 2.56507L15.0957 2.56111L15.3091 2.67176C15.4316 2.73894 15.566 2.84564 15.6331 2.94048C15.6964 3.03137 15.7636 3.1934 15.7873 3.3159C15.811 3.45026 15.8268 4.54885 15.8268 8.88787H13.8904V4.46191H9.3459V19.1229H13.8904L13.9102 14.6772H15.807V17.4632C15.807 18.9965 15.7952 20.3124 15.7794 20.3875C15.7636 20.4626 15.6806 20.6048 15.6015 20.6997C15.5185 20.7985 15.3644 20.917 15.0562 21.0593H9.3459V22.0551C9.3459 22.9324 9.33405 23.0747 9.27477 23.213C9.23525 23.2999 9.14831 23.4106 9.08509 23.462C9.02186 23.5133 8.90726 23.5726 8.83217 23.5963C8.72152 23.6319 8.6583 23.6279 8.49627 23.5686C8.38958 23.5291 7.49648 23.1379 6.5204 22.6993C5.54431 22.2567 4.03869 21.5849 3.18116 21.1976C2.32363 20.8143 1.54909 20.4665 1.46215 20.427C1.37521 20.3875 1.13415 20.2768 0.928663 20.182C0.723171 20.0872 0.474211 19.937 0.379369 19.85C0.284526 19.7671 0.162022 19.605 0 19.3008V4.3236L0.102746 4.12601C0.162022 4.01536 0.296382 3.84939 0.403079 3.75059C0.565101 3.60833 0.821965 3.47397 1.74272 3.06299C2.37105 2.77846 2.97172 2.50974 3.08237 2.46232C3.18907 2.4149 4.01894 2.04343 4.91994 1.64035C5.82094 1.23332 6.61524 0.873714 6.67847 0.846052C6.74169 0.814438 7.16058 0.624754 7.60713 0.427166Z" fill="#848484"/>
<path d="M18.3638 7.59565C18.4112 7.54428 18.51 7.48895 18.5733 7.46919C18.6365 7.44944 18.7353 7.42968 18.7906 7.42968C18.8459 7.42572 18.9645 7.46524 19.0554 7.51266C19.1463 7.56404 19.6284 7.93155 20.1223 8.33463C20.6124 8.73771 21.2802 9.2791 21.5963 9.53991C21.9164 9.80073 22.5369 10.3066 22.9795 10.6662C23.4221 11.0258 23.8212 11.3656 23.8726 11.4289C23.9239 11.4881 23.9793 11.5948 23.9911 11.666C24.003 11.7331 24.003 11.8596 23.9911 11.9426C23.9753 12.0453 23.9121 12.1441 23.7777 12.2785C23.675 12.3812 23.0783 12.8831 22.4499 13.3929C21.8255 13.9027 20.802 14.7365 20.1777 15.2423C19.3162 15.9457 19.0158 16.167 18.9092 16.1868C18.8341 16.1986 18.7116 16.1947 18.6444 16.1828C18.5732 16.171 18.4428 16.0919 18.352 16.0129C18.2334 15.8983 18.182 15.8193 18.1583 15.6849C18.1386 15.5861 18.1228 15.0408 18.1188 14.4717C18.1188 13.5826 18.1109 13.4284 18.0595 13.4126C18.0279 13.4008 16.4195 13.3929 10.9661 13.3929L10.8239 13.2664C10.7488 13.1953 10.6658 13.0728 10.646 12.9977C10.6263 12.9226 10.6105 12.3891 10.6105 11.8122C10.6105 11.2352 10.6263 10.7017 10.65 10.6266C10.6697 10.5516 10.7409 10.433 10.9306 10.2512L18.1188 10.2315L18.1267 9.07756C18.1386 8.08567 18.1465 7.90389 18.2057 7.80114C18.2413 7.73791 18.3124 7.64307 18.3638 7.59565Z" fill="#848484"/>
</svg>
