<svg width="32" height="25" viewBox="0 0 32 25" fill="none" xmlns="http://www.w3.org/2000/svg">
<path d="M10.2435 14.7405C10.5629 14.6301 11.0155 14.5393 11.3748 14.5068C11.7009 14.4743 13.724 14.4484 15.867 14.4419C18.0099 14.4419 20.0862 14.4679 20.4922 14.5003C20.9248 14.5393 21.4172 14.6236 21.6901 14.7145C21.9496 14.7989 22.3356 14.9612 22.5552 15.0715C22.7749 15.1883 23.1143 15.4155 23.3139 15.5843C23.5136 15.7595 23.7997 16.0711 23.9528 16.2853C24.1125 16.4995 24.3255 16.85 24.4386 17.0642C24.5451 17.2784 24.7115 17.6873 24.8046 17.9729C24.8911 18.2585 25.0043 18.7389 25.0442 19.0439C25.0975 19.4399 25.0975 19.6995 25.0509 19.9527C25.0109 20.1474 24.8978 20.4525 24.798 20.6277C24.6915 20.8225 24.4186 21.1145 24.1192 21.3677C23.8463 21.5949 23.3206 21.9778 22.9545 22.2115C22.5885 22.4452 22.0029 22.7762 21.6568 22.945C21.3108 23.1137 20.8582 23.315 20.6586 23.3929C20.4589 23.4707 20.0197 23.62 19.6936 23.7174C19.3675 23.8148 18.7819 23.9641 18.3959 24.0355C18.0099 24.1133 17.3044 24.2042 16.8319 24.2302C16.3594 24.2561 15.5941 24.2561 15.1349 24.2302C14.6757 24.2042 13.9902 24.1198 13.6043 24.0419C13.2183 23.9641 12.5794 23.7953 12.1734 23.672C11.7675 23.5421 11.1419 23.3085 10.7759 23.1462C10.4099 22.9839 9.88411 22.7178 9.61125 22.5555C9.3384 22.3997 8.89917 22.1206 8.64628 21.9454C8.39339 21.7701 8.00074 21.4715 7.78112 21.2833C7.56151 21.0951 7.30196 20.803 7.20214 20.6277C7.10231 20.4525 6.98918 20.1474 6.94925 19.9527C6.90266 19.6995 6.90266 19.4399 6.9559 19.0439C6.99583 18.7389 7.10897 18.2585 7.19548 17.9729C7.28865 17.6873 7.45503 17.2784 7.56151 17.0642C7.67464 16.85 7.8876 16.4995 8.04733 16.2853C8.20039 16.0711 8.45994 15.779 8.62631 15.6362C8.79269 15.4934 9.10547 15.2727 9.31843 15.1494C9.53139 15.0261 9.95066 14.8378 10.2435 14.7405Z" fill="#848484"/>
<path d="M20.0264 12.216C20.2127 12.0538 20.4789 11.7746 20.6187 11.5929L20.8849 11.2554H24.1458C26.0492 11.2554 27.5931 11.2813 27.846 11.3203C28.0856 11.3592 28.4716 11.4501 28.7112 11.528C28.9508 11.5994 29.3368 11.7746 29.5763 11.9045C29.8159 12.0408 30.1686 12.2939 30.3683 12.4627C30.5679 12.6379 30.8408 12.943 30.9739 13.1377C31.1136 13.3325 31.3133 13.6765 31.4331 13.9037C31.5462 14.1244 31.7192 14.5592 31.8124 14.8773C31.9588 15.3446 31.9921 15.5783 31.9988 16.2209C32.0054 16.9349 31.9921 17.0258 31.839 17.3114C31.7459 17.4866 31.5262 17.7658 31.3399 17.9345C31.1602 18.1098 30.8142 18.3889 30.5746 18.5641C30.335 18.7394 29.8758 19.0445 29.5431 19.2457C29.2103 19.4404 28.7511 19.6936 28.5115 19.8039C28.2719 19.9142 27.8993 20.0765 27.6797 20.1674C27.46 20.2518 27.0807 20.3881 26.8345 20.466C26.5816 20.5374 26.3553 20.5893 26.3154 20.5698C26.2688 20.5504 26.2688 20.453 26.3154 20.2972C26.3487 20.1609 26.3819 19.8104 26.3819 19.5183C26.3819 19.2197 26.342 18.7654 26.2888 18.5122C26.2355 18.2526 26.129 17.8177 26.0492 17.5516C25.9693 17.2854 25.7697 16.7986 25.6099 16.4806C25.4502 16.1625 25.1374 15.6757 24.9245 15.4096C24.7049 15.1434 24.2923 14.741 24.0061 14.5138C23.7199 14.2931 23.2474 13.9945 22.9546 13.8582C22.6618 13.7154 22.2159 13.5467 21.9563 13.4688C21.6968 13.3974 21.2975 13.3065 21.0579 13.274C20.8183 13.2351 20.226 13.2026 19.7469 13.2026C19.2211 13.2026 18.8485 13.1767 18.8285 13.1377C18.8085 13.1053 18.9949 12.943 19.2478 12.7937C19.494 12.6379 19.8467 12.3783 20.0264 12.216Z" fill="#848484"/>
<path d="M3.28899 11.528C3.52857 11.4501 3.88794 11.3592 4.08759 11.3268C4.28724 11.2943 5.95099 11.2684 11.1086 11.2554L11.3748 11.5864C11.5212 11.7746 11.7874 12.0538 11.9738 12.216C12.1601 12.3783 12.5062 12.6379 12.7524 12.7937C13.0053 12.943 13.1916 13.0988 13.1717 13.1377C13.1517 13.1767 12.779 13.2026 12.2599 13.2026C11.7741 13.2026 11.1818 13.2351 10.9422 13.274C10.7027 13.3065 10.3034 13.3974 10.0438 13.4753C9.78428 13.5467 9.33839 13.7219 9.04557 13.8582C8.75275 13.9945 8.2869 14.2866 8.01404 14.4943C7.74119 14.7085 7.33523 15.098 7.11562 15.3641C6.896 15.6302 6.57656 16.1236 6.41019 16.4546C6.23716 16.7921 6.03085 17.2854 5.95099 17.5516C5.87113 17.8177 5.76465 18.2526 5.71141 18.5057C5.65817 18.7654 5.61824 19.2197 5.61824 19.5118C5.61824 19.8104 5.65152 20.1609 5.68479 20.2907C5.73137 20.453 5.73137 20.5504 5.68479 20.5698C5.64486 20.5893 5.41859 20.5374 5.17235 20.466C4.91946 20.3881 4.54013 20.2518 4.32051 20.1674C4.1009 20.0765 3.72822 19.9142 3.48864 19.7974C3.24906 19.6806 2.82979 19.4599 2.55694 19.3041C2.28408 19.1483 1.77165 18.8043 1.42558 18.5512C1.07952 18.2915 0.686879 17.9735 0.547123 17.8307C0.414023 17.6944 0.234338 17.4542 0.147823 17.2919C0.00806785 17.0323 -0.00524217 16.9154 0.00141283 16.2209C0.00806784 15.5783 0.0413429 15.3446 0.187753 14.8708C0.280923 14.5592 0.453953 14.1244 0.567089 13.8972C0.686879 13.6765 0.886529 13.3325 1.02628 13.1377C1.15938 12.943 1.43224 12.6379 1.63189 12.4627C1.83154 12.2939 2.18426 12.0408 2.42384 11.9045C2.66342 11.7746 3.04941 11.5994 3.28899 11.528Z" fill="#848484"/>
<path d="M14.6158 3.6802C14.8621 3.6088 15.1283 3.5374 15.2148 3.51143C15.3013 3.49196 15.7272 3.48547 16.1665 3.49845C16.8186 3.51143 17.0582 3.55038 17.4642 3.68669C17.737 3.78405 18.0964 3.93983 18.2628 4.03071C18.4292 4.12158 18.722 4.3228 18.915 4.4656C19.108 4.61489 19.4074 4.90698 19.5871 5.12118C19.7668 5.33538 20.0064 5.68589 20.1195 5.90009C20.2393 6.11429 20.399 6.49076 20.4789 6.74391C20.5987 7.11389 20.6253 7.34756 20.6187 8.00963C20.6187 8.70416 20.592 8.8924 20.439 9.34027C20.3458 9.62587 20.1528 10.0413 20.013 10.2685C19.8733 10.4892 19.6271 10.8202 19.4607 11.0084C19.2943 11.1902 19.0148 11.4498 18.8285 11.5796C18.6488 11.7095 18.3626 11.8912 18.1962 11.9821C18.0299 12.0729 17.6439 12.2287 17.3311 12.3261C16.8519 12.4754 16.6523 12.5013 16.0001 12.5013C15.3612 12.5013 15.1482 12.4754 14.7023 12.3391C14.4095 12.2482 14.0235 12.0924 13.8372 11.9951C13.6575 11.8977 13.358 11.7095 13.1717 11.5796C12.992 11.4498 12.7058 11.1902 12.5395 11.0084C12.3731 10.8202 12.1269 10.4892 11.9871 10.2685C11.8474 10.0413 11.6544 9.62587 11.5612 9.34027C11.4081 8.8924 11.3815 8.70416 11.3815 8.00963C11.3748 7.34756 11.4015 7.11389 11.5213 6.74391C11.6011 6.49076 11.7608 6.11429 11.8806 5.90009C11.9938 5.68589 12.22 5.34836 12.3864 5.15364C12.5528 4.95891 12.8389 4.67331 13.0253 4.51753C13.2183 4.36174 13.551 4.14105 13.7706 4.02422C13.9903 3.90089 14.3696 3.7516 14.6158 3.6802Z" fill="#848484"/>
<path d="M21.6236 0.447951C21.8432 0.383041 22.156 0.311641 22.3224 0.279187C22.4887 0.253223 22.8947 0.246732 23.2208 0.266205C23.5668 0.285678 24.026 0.363569 24.3189 0.447951C24.5917 0.532332 24.9711 0.681623 25.1507 0.778987C25.3371 0.876351 25.59 1.03213 25.7164 1.12301C25.8429 1.21388 26.0492 1.37615 26.1756 1.48001C26.2954 1.59035 26.5084 1.82402 26.6415 2.00577C26.7812 2.18102 26.9742 2.47311 27.074 2.65486C27.1739 2.83011 27.3336 3.21308 27.4268 3.49868C27.5665 3.92708 27.5998 4.14777 27.5998 4.7644C27.6064 5.36157 27.5732 5.60822 27.4534 5.99768C27.3669 6.2638 27.1938 6.68571 27.0607 6.93886C26.8877 7.2634 26.6415 7.56199 26.2155 7.9774C25.763 8.41879 25.4901 8.62 25.1175 8.80824C24.8446 8.93806 24.3654 9.11331 24.0527 9.18471C23.6134 9.29506 23.3339 9.31453 22.8015 9.30155C22.3756 9.28208 22.1027 9.24962 22.0695 9.19769C22.0428 9.15875 22.0495 8.85368 22.0828 8.51615C22.1294 8.08775 22.1227 7.72426 22.0628 7.2634C22.0162 6.9064 21.9031 6.39362 21.8099 6.1275C21.7168 5.86137 21.5637 5.49139 21.4705 5.31613C21.384 5.13439 21.1844 4.81633 21.0379 4.60213C20.8849 4.38793 20.5521 4.00497 20.2926 3.75831C20.033 3.51166 19.6071 3.16764 18.8618 2.68731L19.0082 2.40821C19.0947 2.25891 19.4141 1.88893 19.7269 1.58386C20.1196 1.2009 20.4323 0.954241 20.7584 0.791969C21.018 0.662151 21.404 0.506369 21.6236 0.447951Z" fill="#848484"/>
<path d="M7.58148 0.480067C7.83437 0.395685 8.21371 0.304812 8.41336 0.278848C8.61301 0.252885 9.00566 0.239903 9.27851 0.259376C9.55137 0.272358 10.0039 0.343758 10.2768 0.421649C10.5496 0.493049 10.9822 0.661812 11.2417 0.79163C11.5612 0.953903 11.8806 1.20056 12.2733 1.58352C12.5861 1.88859 12.9055 2.25858 13.1384 2.68698L12.6593 2.99205C12.3931 3.1673 11.9671 3.51132 11.7076 3.75798C11.448 4.00463 11.1153 4.38759 10.9622 4.60179C10.8158 4.81599 10.6162 5.13405 10.5297 5.31579C10.4365 5.49105 10.2834 5.86103 10.1902 6.12716C10.0971 6.39329 9.98394 6.90607 9.93736 7.26307C9.87746 7.72392 9.87081 8.08741 9.91739 8.51581C9.95067 8.85334 9.95732 9.15841 9.9307 9.19736C9.89743 9.24929 9.62457 9.28174 9.19865 9.30121C8.6596 9.3142 8.38674 9.29472 7.94751 9.18438C7.63472 9.10649 7.16222 8.93772 6.88936 8.80141C6.53665 8.63265 6.23052 8.40547 5.81791 8.00952C5.43192 7.63954 5.15241 7.3085 4.97938 7.00343C4.83962 6.75029 4.65328 6.32838 4.56677 6.06225C4.43367 5.65981 4.40705 5.43912 4.40039 4.79652C4.40039 4.13445 4.42701 3.93972 4.57342 3.49834C4.66659 3.21274 4.82631 2.82978 4.92614 2.65452C5.02596 2.47278 5.21896 2.18069 5.35871 2.00543C5.49181 1.82369 5.70477 1.59001 5.83122 1.48616C5.95766 1.37581 6.16397 1.21354 6.29041 1.12267C6.41686 1.03179 6.64978 0.882503 6.81616 0.798121C6.98253 0.707249 7.32859 0.564449 7.58148 0.480067Z" fill="#848484"/>
</svg>
