<svg width="32" height="32" viewBox="0 0 32 32" fill="none" xmlns="http://www.w3.org/2000/svg">
<path fill-rule="evenodd" clip-rule="evenodd" d="M13.3064 0.0643082C13.2113 0.104359 13.0611 0.189468 12.981 0.254551C12.901 0.314627 12.7758 0.479838 12.7058 0.61501L12.5806 0.860322L12.5306 5.11575C11.95 5.316 11.5496 5.48121 11.2643 5.60637C10.984 5.73654 10.7388 5.84167 10.7188 5.84167C10.6938 5.84167 10.0131 5.17582 9.20226 4.36479C8.20627 3.37352 7.66573 2.86788 7.5356 2.81281C7.4355 2.77276 7.2303 2.73771 7.08515 2.73771C6.93 2.73771 6.74481 2.77777 6.62469 2.83784C6.49957 2.89792 5.76884 3.59381 4.66274 4.70022C3.46154 5.90675 2.87595 6.52754 2.8209 6.65771C2.78086 6.75784 2.74582 6.95809 2.74582 7.09326C2.74582 7.23344 2.78086 7.42869 2.8209 7.53383C2.87595 7.65899 3.38146 8.19967 4.37245 9.19594C5.18325 10.007 5.84892 10.6878 5.84892 10.7079C5.84892 10.7329 5.74381 10.9782 5.61368 11.2586C5.48856 11.5439 5.32339 11.9444 5.25332 12.1497L5.12319 12.5252L0.868952 12.5752C0.478562 12.7755 0.313398 12.9107 0.228313 13.0258C0.153238 13.136 0.0631482 13.3062 0.0381232 13.4013C0.0080933 13.5114 -0.00692168 14.5177 0.0030883 16.1098L0.0181033 18.643C0.273358 19.0485 0.403488 19.1687 0.593677 19.2788L0.868952 19.434L5.12319 19.4841C5.32339 20.0648 5.48856 20.4653 5.61368 20.7457C5.74381 21.031 5.84892 21.2763 5.84892 21.2964C5.84892 21.3214 5.18325 22.0023 4.37245 22.8133C3.38146 23.8096 2.87595 24.3503 2.8209 24.4754C2.78086 24.5805 2.74582 24.7758 2.74582 24.916C2.74582 25.0511 2.78086 25.2514 2.8209 25.3515C2.87595 25.4817 3.46154 26.1025 4.66274 27.309C5.76884 28.4154 6.49957 29.1113 6.62469 29.1714C6.74481 29.2315 6.93 29.2715 7.08515 29.2715C7.2303 29.2715 7.4355 29.2365 7.5356 29.1964C7.66573 29.1414 8.20627 28.6357 9.20226 27.6445C10.0131 26.8334 10.6938 26.1676 10.7188 26.1676C10.7388 26.1676 10.984 26.2727 11.2693 26.4029C11.5496 26.528 11.95 26.6932 12.1552 26.7633L12.5306 26.8935L12.5806 31.1489C12.8459 31.6145 12.966 31.7447 13.1312 31.8498L13.3714 32H18.6467C19.0521 31.7447 19.1722 31.6145 19.2823 31.4243L19.4375 31.1489L19.4875 26.8935C19.7178 26.8234 20.1332 26.6532 20.5536 26.473L21.3244 26.1425C23.8168 28.6407 24.3524 29.1414 24.4775 29.1964C24.5826 29.2365 24.7878 29.2715 24.9279 29.2715C25.0881 29.2715 25.2733 29.2315 25.3934 29.1714C25.5185 29.1113 26.2493 28.4154 27.3554 27.309C28.5566 26.1025 29.1421 25.4817 29.1972 25.3515C29.2372 25.2514 29.2723 25.0511 29.2723 24.916C29.2723 24.7758 29.2372 24.5805 29.1972 24.4754C29.1421 24.3503 28.6366 23.8096 27.6457 22.8133C26.8348 22.0023 26.1692 21.3214 26.1692 21.2964C26.1692 21.2763 26.2743 21.031 26.3994 20.7457C26.5295 20.4653 26.6947 20.0648 26.7648 19.8595L26.8949 19.4841L31.1492 19.434C31.6146 19.1687 31.7447 19.0485 31.8498 18.8833L32 18.643V13.3663C31.7447 12.9607 31.6146 12.8406 31.4244 12.7304L31.1492 12.5752L26.8949 12.5252C26.6947 11.9444 26.5295 11.5439 26.4044 11.2586C26.2743 10.9782 26.1692 10.7329 26.1692 10.7129C26.1692 10.6878 26.8348 10.007 27.6457 9.19594C28.6366 8.19967 29.1421 7.65899 29.1972 7.52882C29.2372 7.42869 29.2723 7.22343 29.2723 7.07825C29.2723 6.92305 29.2322 6.73781 29.1722 6.61766C29.1121 6.4925 28.4164 5.76157 27.3103 4.65516C26.1041 3.45363 25.4835 2.86788 25.3584 2.81281C25.2533 2.77276 25.0531 2.73771 24.9179 2.73771C24.7778 2.73771 24.5826 2.77276 24.4775 2.81281C24.3524 2.86788 23.8118 3.37352 22.8158 4.36479C22.005 5.17582 21.3244 5.84167 21.3043 5.84167C21.2793 5.84167 21.0341 5.73654 20.7538 5.60637C20.4685 5.48121 20.0681 5.316 19.8629 5.2409L19.4875 5.11074L19.4375 0.860322C19.1722 0.394729 19.0521 0.264563 18.8869 0.159429L18.6467 0.00923802C13.8319 -0.0107875 13.4565 -0.000774733 13.3064 0.0643082ZM14.8582 10.4023C14.5979 10.4574 14.1925 10.5775 13.9573 10.6727C13.722 10.7628 13.3867 10.918 13.2065 11.0231C13.0263 11.1232 12.736 11.3135 12.5559 11.4486C12.3757 11.5838 12.0854 11.8441 11.9052 12.0344C11.725 12.2196 11.4948 12.485 11.3947 12.6251C11.2946 12.7603 11.1294 13.0206 11.0293 13.2009C10.9242 13.3811 10.7691 13.7165 10.679 13.9518C10.5839 14.1871 10.4638 14.6077 10.4087 14.888C10.3386 15.2385 10.3036 15.5939 10.3036 16.0044C10.3036 16.415 10.3386 16.7704 10.4087 17.1159C10.4638 17.4012 10.5839 17.8218 10.679 18.0571C10.7691 18.2924 10.9242 18.6278 11.0293 18.808C11.1294 18.9883 11.3296 19.2886 11.4798 19.4839C11.6249 19.6741 11.8752 19.9595 12.0403 20.1147C12.2005 20.2649 12.4558 20.4852 12.6059 20.5953C12.7561 20.7104 13.0263 20.8857 13.2065 20.9858C13.3867 21.0909 13.722 21.2461 13.9573 21.3362C14.1925 21.4314 14.6129 21.5515 14.8982 21.6066C15.2435 21.6767 15.5989 21.7117 16.0093 21.7117C16.4197 21.7117 16.7751 21.6767 17.1254 21.6066C17.4057 21.5515 17.8261 21.4314 18.0614 21.3362C18.2966 21.2461 18.6319 21.0909 18.8121 20.9858C18.9923 20.8857 19.2625 20.7104 19.4127 20.5953C19.5628 20.4852 19.8181 20.2649 19.9783 20.1147C20.1434 19.9595 20.3937 19.6741 20.5388 19.4839C20.689 19.2886 20.8892 18.9883 20.9893 18.808C21.0944 18.6278 21.2495 18.2924 21.3396 18.0571C21.4347 17.8218 21.5548 17.4012 21.6099 17.1159C21.68 16.7704 21.715 16.415 21.715 16.0044C21.715 15.5939 21.68 15.2385 21.6099 14.888C21.5548 14.6077 21.4347 14.1871 21.3396 13.9518C21.2495 13.7165 21.0944 13.3811 20.9893 13.2009C20.8892 13.0206 20.699 12.7303 20.5638 12.55C20.4337 12.3698 20.1785 12.0895 20.0033 11.9192C19.8331 11.754 19.5628 11.5237 19.4127 11.4136C19.2625 11.2985 18.9673 11.1132 18.7621 10.9931C18.5568 10.8779 18.2065 10.7177 17.9863 10.6376C17.7661 10.5575 17.3657 10.4474 17.0954 10.3973C16.755 10.3272 16.4147 10.2972 15.9743 10.3022C15.5388 10.3022 15.1835 10.3372 14.8582 10.4023Z" fill="#848484"/>
</svg>
