<svg width="22" height="22" viewBox="0 0 22 22" fill="none" xmlns="http://www.w3.org/2000/svg">
<path d="M9.11314 1.15909L9.4132 1.55905L9.42096 1.55323L9.42849 1.54711L9.11314 1.15909ZM9.31647 1.04019L9.51056 1.50102L9.51532 1.49895L9.31647 1.04019ZM8.9411 1.38438L8.49719 1.15427L8.49569 1.1572L8.9411 1.38438ZM8.8629 1.5377L8.41749 1.31052L8.36431 1.41478L8.36293 1.53182L8.8629 1.5377ZM8.83161 4.19734L8.99465 4.67001L9.32744 4.55523L9.33158 4.20322L8.83161 4.19734ZM8.0402 4.50398L7.83928 4.046L7.8296 4.0505L8.0402 4.50398ZM6.75141 3.72799L7.10502 3.37449L7.10413 3.3736L6.75141 3.72799ZM5.70975 2.75801L5.90465 2.29745L5.89549 2.29379L5.70975 2.75801ZM5.14043 2.77365L5.35688 3.22445L5.36409 3.22084L5.14043 2.77365ZM3.91421 3.93763L3.56061 3.58413L3.55987 3.58487L3.91421 3.93763ZM2.76306 5.16107L2.30247 4.96626L2.29881 4.97542L2.76306 5.16107ZM2.76306 5.70864L2.2958 5.8866L2.3003 5.8984L2.30538 5.90996L2.76306 5.70864ZM3.73278 6.74746L3.37829 7.10008L3.37918 7.10097L3.73278 6.74746ZM4.50855 8.03661L4.05492 7.82605L4.05064 7.83582L4.50855 8.03661ZM4.28333 8.59357L4.75577 8.7573L4.75652 8.7551L4.28333 8.59357ZM4.202 8.82824L4.20788 9.32821L4.55933 9.32407L4.67443 8.99197L4.202 8.82824ZM1.54309 8.85953L1.53721 8.35957L1.41957 8.36095L1.31489 8.41465L1.54309 8.85953ZM1.1427 9.14114L0.740567 8.844L0.734908 8.85166L0.729545 8.85953L1.1427 9.14114ZM1.02383 9.37581L1.50624 9.50734L1.50737 9.50303L1.02383 9.37581ZM1.00193 11.0686L1.50192 11.0656L1.50192 11.0655L1.00193 11.0686ZM1.01131 12.6519L0.511323 12.6548L0.512169 12.7975L0.588165 12.9182L1.01131 12.6519ZM1.37105 13.0492L1.12046 13.482L1.12549 13.4848L1.37105 13.0492ZM1.54309 13.1462L1.29754 13.5818L1.40912 13.6447L1.53721 13.6462L1.54309 13.1462ZM4.202 13.1775L4.6747 13.0146L4.55995 12.6817L4.20788 12.6776L4.202 13.1775ZM4.50855 13.966L4.05195 14.1698L4.05362 14.1735L4.50855 13.966ZM3.73278 15.2583L3.37918 14.9048L3.37829 14.9057L3.73278 15.2583ZM2.76306 16.2971L2.30538 16.0958L2.3003 16.1074L2.2958 16.1192L2.76306 16.2971ZM2.76306 16.8447L2.29872 17.0304L2.30256 17.0395L2.76306 16.8447ZM3.91421 18.0681L3.55987 18.4209L3.56061 18.4216L3.91421 18.0681ZM5.14043 19.2321L5.36412 18.7849L5.35684 18.7814L5.14043 19.2321ZM5.70975 19.2478L5.89553 19.7121L5.90461 19.7082L5.70975 19.2478ZM6.75141 18.2778L7.10413 18.6322L7.10502 18.6313L6.75141 18.2778ZM8.04333 17.5018L7.83577 17.9567L7.83946 17.9583L8.04333 17.5018ZM8.59701 17.7271L8.76082 17.2547L8.75862 17.2539L8.59701 17.7271ZM8.83161 17.8084L9.33158 17.8026L9.32745 17.4512L8.99542 17.336L8.83161 17.8084ZM8.8629 20.4681L8.36293 20.474L8.36445 20.6032L8.42846 20.7156L8.8629 20.4681ZM9.20699 20.9061L8.93848 21.3279L8.94194 21.3301L9.20699 20.9061ZM9.35714 21L9.09209 21.424L9.21371 21.5H9.35714V21ZM12.6542 21V21.5H12.7985L12.9206 21.4231L12.6542 21ZM13.0514 20.6402L13.4842 20.8906L13.4871 20.8856L13.0514 20.6402ZM13.1484 20.4681L13.584 20.7135L13.6469 20.602L13.6484 20.474L13.1484 20.4681ZM13.1797 17.8084L13.0341 17.3301L12.684 17.4367L12.6797 17.8026L13.1797 17.8084ZM13.846 17.5456L14.043 18.0052L14.043 18.0051L13.846 17.5456ZM14.3277 17.3391L14.6817 16.9859L14.4423 16.746L14.1307 16.8795L14.3277 17.3391ZM16.2984 19.2478L16.097 19.7054L16.1086 19.7105L16.1204 19.715L16.2984 19.2478ZM16.8709 19.2321L16.6544 18.7813L16.6472 18.7849L16.8709 19.2321ZM18.0971 18.0681L18.4507 18.4216L18.4514 18.4209L18.0971 18.0681ZM19.2483 16.8447L19.7088 17.0395L19.7125 17.0304L19.2483 16.8447ZM19.2483 16.2971L19.7155 16.1192L19.711 16.1074L19.7059 16.0958L19.2483 16.2971ZM18.2785 15.2583L18.633 14.9057L18.6321 14.9048L18.2785 15.2583ZM17.4996 13.966L17.046 13.7555L17.0417 13.7653L17.4996 13.966ZM17.728 13.4122L17.2556 13.2485L17.2548 13.2507L17.728 13.4122ZM17.8093 13.1775L17.8034 12.6776L17.452 12.6817L17.3369 13.0138L17.8093 13.1775ZM20.4682 13.1462L20.4741 13.6462L20.6035 13.6447L20.7158 13.5806L20.4682 13.1462ZM20.9062 12.8021L21.328 13.0705L21.3302 13.067L20.9062 12.8021ZM21 12.6519L21.424 12.9168L21.5 12.7952V12.6519H21ZM21 9.35391H21.5V9.20965L21.4231 9.08756L21 9.35391ZM20.6403 8.95653L20.8909 8.52382L20.8858 8.52098L20.6403 8.95653ZM20.4682 8.85953L20.7138 8.42398L20.6022 8.36107L20.4741 8.35957L20.4682 8.85953ZM17.8093 8.82824L17.3366 8.9912L17.4514 9.32406L17.8034 9.32821L17.8093 8.82824ZM17.5028 8.03661L17.9608 7.83578L17.9563 7.8261L17.5028 8.03661ZM18.2785 6.74746L18.6321 7.10097L18.633 7.10008L18.2785 6.74746ZM19.2483 5.70551L19.7088 5.90032L19.7125 5.89117L19.2483 5.70551ZM19.2326 5.13604L18.7818 5.35238L18.7854 5.3596L19.2326 5.13604ZM18.069 3.90947L18.4226 3.55597L18.4218 3.55523L18.069 3.90947ZM16.849 2.75801L17.0504 2.30037L17.0388 2.29528L17.027 2.29078L16.849 2.75801ZM16.2984 2.75801L16.1204 2.29078L16.1086 2.29528L16.097 2.30037L16.2984 2.75801ZM15.2599 3.72799L14.9072 3.3736L14.9063 3.37449L15.2599 3.72799ZM13.9711 4.50398L14.1818 4.0504L14.172 4.04611L13.9711 4.50398ZM13.4143 4.27556L13.5862 3.80595L13.5781 3.80316L13.4143 4.27556ZM13.1797 4.19421L12.6797 4.2001L12.6839 4.55148L13.0159 4.66662L13.1797 4.19421ZM13.1484 1.5377L13.6484 1.53181L13.6469 1.40253L13.5829 1.29019L13.1484 1.5377ZM12.8043 1.09964L13.0728 0.677832L13.0694 0.675678L12.8043 1.09964ZM12.6542 1.00577L12.9192 0.581808L12.7986 0.50637L12.6563 0.505778L12.6542 1.00577ZM9.72321 7.67045L9.90211 8.13744L9.91065 8.13399L9.72321 7.67045ZM10.2863 7.50149L10.1882 7.01117L10.1828 7.01232L10.2863 7.50149ZM9.25399 7.88948L9.49692 8.32663L9.50598 8.32134L9.25399 7.88948ZM8.44068 8.52153L8.79912 8.87019L8.8037 8.86536L8.44068 8.52153ZM8.12161 8.89076L8.52349 9.18836L8.52852 9.18132L8.12161 8.89076ZM7.89326 9.25059L8.32527 9.50253L8.33037 9.49336L7.89326 9.25059ZM7.67429 9.71994L8.13794 9.90732L8.14124 9.89872L7.67429 9.71994ZM7.50537 10.3051L7.99567 10.4031L7.996 10.4014L7.50537 10.3051ZM7.50537 11.6975L7.99634 11.6027L7.99539 11.5981L7.50537 11.6975ZM7.67429 12.2857L8.14132 12.1069L8.13786 12.0984L7.67429 12.2857ZM7.89326 12.7551L8.33046 12.5122L8.32518 12.5032L7.89326 12.7551ZM8.17479 13.1775L8.57231 12.8742L8.57114 12.8727L8.17479 13.1775ZM8.52514 13.5717L8.18275 13.9361L8.18312 13.9364L8.52514 13.5717ZM8.87862 13.8721L9.18296 13.4752L9.17435 13.4689L8.87862 13.8721ZM9.25399 14.1162L9.50604 13.6842L9.49686 13.6791L9.25399 14.1162ZM9.72321 14.3352L9.91068 13.8716L9.90208 13.8683L9.72321 14.3352ZM10.3113 14.5042L10.4107 14.0141L10.4061 14.0132L10.3113 14.5042ZM11.7033 14.5042L11.6069 14.0135L11.6052 14.0139L11.7033 14.5042ZM12.2883 14.3352L12.1094 13.8682L12.1008 13.8717L12.2883 14.3352ZM12.7575 14.1162L12.5146 13.679L12.5055 13.6843L12.7575 14.1162ZM13.1329 13.8721L12.8371 13.4688L12.8286 13.4753L13.1329 13.8721ZM13.4863 13.5717L13.8284 13.9364L13.8287 13.9361L13.4863 13.5717ZM13.8367 13.1775L13.4403 12.8727L13.4392 12.8742L13.8367 13.1775ZM14.1182 12.7551L13.6862 12.5031L13.6811 12.5123L14.1182 12.7551ZM14.3372 12.2857L13.8735 12.0983L13.8702 12.1069L14.3372 12.2857ZM14.5061 11.6975L14.0161 11.5981L14.0152 11.6027L14.5061 11.6975ZM14.5061 10.3051L14.0155 10.4014L14.0158 10.4031L14.5061 10.3051ZM14.3372 9.71994L13.8702 9.89875L13.8736 9.90728L14.3372 9.71994ZM14.1182 9.25059L13.681 9.49341L13.6863 9.50247L14.1182 9.25059ZM13.8523 8.84382L13.4469 9.13656L13.4523 9.14377L13.8523 8.84382ZM13.502 8.44957L13.8504 8.09098L13.8503 8.09083L13.502 8.44957ZM13.1329 8.13354L12.8285 8.53039L12.8371 8.5367L13.1329 8.13354ZM12.7262 7.87071L12.9789 7.43916L12.9709 7.43466L12.7262 7.87071ZM12.2413 7.64855L12.4123 7.17867L12.4123 7.17867L12.2413 7.64855ZM11.6845 7.49836L11.5837 7.98818L11.5935 7.98999L11.6845 7.49836ZM10.9838 7.43891V7.93894L10.9895 7.93887L10.9838 7.43891ZM9.42849 1.54711C9.4245 1.55035 9.42558 1.54915 9.43367 1.5438C9.44095 1.53898 9.45061 1.53297 9.46186 1.52646C9.47302 1.51999 9.48405 1.51401 9.49372 1.50909C9.49847 1.50666 9.50247 1.50471 9.50559 1.50324C9.50713 1.50252 9.50834 1.50197 9.50923 1.50157C9.51012 1.50117 9.51055 1.50099 9.51055 1.50099L9.1224 0.579393C9.02952 0.618512 8.89233 0.694246 8.7978 0.77108L9.42849 1.54711ZM9.385 1.61449C9.3875 1.60967 9.39237 1.60105 9.39971 1.58966C9.40689 1.57851 9.41482 1.56723 9.42253 1.55711C9.43049 1.54666 9.43613 1.54018 9.43842 1.53771C9.43944 1.5366 9.43842 1.53779 9.43533 1.54069C9.4326 1.54325 9.42511 1.55011 9.4132 1.55905L8.81309 0.759134C8.7317 0.820193 8.66612 0.89984 8.62702 0.951169C8.58161 1.01078 8.53465 1.08201 8.4972 1.15427L9.385 1.61449ZM9.3083 1.76489L9.38651 1.61157L8.49569 1.1572L8.41749 1.31052L9.3083 1.76489ZM9.33158 4.20322L9.36286 1.54358L8.36293 1.53182L8.33165 4.19146L9.33158 4.20322ZM8.24108 4.96185C8.40829 4.8885 8.64589 4.79031 8.99465 4.67001L8.66858 3.72467C8.29161 3.85469 8.02871 3.96302 7.83932 4.04611L8.24108 4.96185ZM7.69923 5.15104C7.74607 5.15104 7.78241 5.14431 7.79484 5.14193C7.8118 5.13868 7.8255 5.13517 7.83375 5.13294C7.85031 5.12846 7.86402 5.12391 7.87177 5.12127C7.88819 5.11566 7.9041 5.10956 7.9164 5.10472C7.94226 5.09453 7.97347 5.08146 8.00643 5.06727C8.07333 5.03847 8.15982 4.99972 8.2508 4.95746L7.8296 4.0505C7.74541 4.0896 7.66767 4.12438 7.61101 4.14877C7.58219 4.16118 7.56179 4.16962 7.54991 4.17429C7.54334 4.17688 7.54386 4.17655 7.54881 4.17485C7.55083 4.17417 7.5598 4.17111 7.57265 4.16763C7.57906 4.1659 7.59116 4.16277 7.60679 4.15977C7.61483 4.15823 7.62618 4.15627 7.63991 4.15461C7.65288 4.15304 7.67362 4.15104 7.69923 4.15104V5.15104ZM6.39781 4.0815C6.65203 4.33578 6.88669 4.56816 7.0604 4.73757C7.14693 4.82195 7.2201 4.89243 7.2736 4.94265C7.29977 4.96722 7.32463 4.99014 7.34533 5.00826C7.35477 5.01653 7.36938 5.02914 7.38558 5.04168C7.39265 5.04715 7.40918 5.05977 7.43076 5.07332C7.44104 5.07977 7.46238 5.09274 7.49088 5.10573C7.50395 5.11169 7.5863 5.15104 7.69923 5.15104V4.15104C7.81168 4.15104 7.89334 4.1902 7.90552 4.19575C7.93314 4.20833 7.95339 4.2207 7.96239 4.22635C7.98142 4.23829 7.99461 4.24852 7.99758 4.25081C8.00558 4.25701 8.00896 4.26018 8.00428 4.25608C7.99673 4.24947 7.98184 4.23592 7.958 4.21354C7.9115 4.1699 7.84371 4.10466 7.75858 4.02164C7.58899 3.85625 7.35756 3.6271 7.10502 3.37449L6.39781 4.0815ZM5.51489 3.21847C5.47097 3.19989 5.44769 3.18093 5.45996 3.18977C5.46489 3.19332 5.47716 3.20267 5.49869 3.22065C5.54137 3.25632 5.60311 3.31138 5.6867 3.38931C5.85299 3.54433 6.08841 3.77357 6.3987 4.08239L7.10413 3.3736C6.79192 3.06288 6.54717 2.82433 6.36859 2.65785C6.27975 2.57503 6.20287 2.50591 6.13988 2.45328C6.10857 2.42711 6.07624 2.40128 6.04469 2.37854C6.02049 2.3611 5.96886 2.32473 5.90462 2.29754L5.51489 3.21847ZM5.42822 3.21107C5.43181 3.21107 5.4407 3.21134 5.45444 3.21265C5.46774 3.21391 5.48235 3.21583 5.49671 3.21824C5.51126 3.22069 5.52291 3.22319 5.53057 3.22511C5.54007 3.22749 5.53647 3.22721 5.52401 3.22223L5.89549 2.29379C5.75974 2.23947 5.56535 2.21107 5.42822 2.21107V3.21107ZM5.36409 3.22084C5.35768 3.22405 5.35634 3.22411 5.36128 3.22246C5.36578 3.22097 5.37293 3.21891 5.3822 3.2169C5.39138 3.2149 5.40084 3.21335 5.40969 3.21233C5.41868 3.21131 5.42503 3.21107 5.42822 3.21107V2.21107C5.26647 2.21107 5.07195 2.24886 4.91678 2.32646L5.36409 3.22084ZM4.26781 4.29114C4.61217 3.94669 4.89575 3.6685 5.10163 3.47289C5.20497 3.37471 5.28573 3.3002 5.34337 3.24948C5.37249 3.22385 5.39202 3.20756 5.4035 3.1985C5.42697 3.17996 5.40315 3.20216 5.35685 3.22439L4.92402 2.32291C4.85817 2.35453 4.80296 2.39853 4.78379 2.41367C4.75262 2.43828 4.71824 2.46753 4.68275 2.49876C4.61116 2.56176 4.51987 2.64625 4.41285 2.74792C4.198 2.95205 3.90757 3.23708 3.56061 3.58413L4.26781 4.29114ZM3.22356 5.35584C3.20267 5.40525 3.1802 5.43143 3.19291 5.41434C3.19829 5.40709 3.21036 5.39178 3.23214 5.36628C3.27524 5.31579 3.34127 5.24292 3.43405 5.14437C3.61873 4.94822 3.89388 4.66673 4.26855 4.2904L3.55987 3.58487C3.18379 3.96262 2.90058 4.25218 2.70596 4.45888C2.6091 4.56176 2.53026 4.64827 2.4716 4.71698C2.4425 4.75107 2.41446 4.78532 2.39032 4.81781C2.37349 4.84045 2.33206 4.89655 2.30256 4.96629L3.22356 5.35584ZM3.21614 5.43329C3.21614 5.43332 3.21615 5.43149 3.21636 5.4277C3.21656 5.424 3.21692 5.41918 3.2175 5.41336C3.21868 5.40148 3.22052 5.38794 3.22288 5.37429C3.22527 5.36048 3.22774 5.34922 3.22967 5.34165C3.23203 5.33242 3.23187 5.33534 3.22732 5.34672L2.29881 4.97542C2.24568 5.10827 2.21614 5.29854 2.21614 5.43329H3.21614ZM3.23032 5.53069C3.23297 5.53764 3.23236 5.53733 3.22993 5.52772C3.22779 5.51922 3.22526 5.50756 3.22288 5.49386C3.22053 5.48025 3.21871 5.46684 3.21754 5.45498C3.21633 5.44266 3.21614 5.43537 3.21614 5.43329H2.21614C2.21614 5.57442 2.24668 5.75761 2.2958 5.8866L3.23032 5.53069ZM4.08727 6.39485C3.77862 6.08455 3.54922 5.84886 3.394 5.68263C3.31598 5.59908 3.26055 5.53719 3.22445 5.49433C3.20624 5.4727 3.19652 5.46013 3.19258 5.45475C3.18313 5.44184 3.2019 5.4645 3.22074 5.50732L2.30538 5.90996C2.33282 5.97234 2.369 6.02267 2.38583 6.04564C2.40817 6.07615 2.43362 6.10768 2.45954 6.13847C2.51172 6.20042 2.58044 6.2766 2.66312 6.36514C2.82931 6.54311 3.06757 6.78771 3.37829 7.10008L4.08727 6.39485ZM5.15557 7.69242C5.15557 7.56161 5.10192 7.46678 5.10071 7.46441C5.08731 7.43813 5.0744 7.41861 5.06863 7.41008C5.05608 7.39151 5.0446 7.37716 5.03983 7.37125C5.02862 7.35736 5.01722 7.34444 5.00937 7.33566C4.99223 7.3165 4.97014 7.2928 4.94579 7.26707C4.89615 7.21463 4.82615 7.14221 4.74187 7.05594C4.57278 6.88284 4.34065 6.6483 4.08638 6.39396L3.37918 7.10097C3.63166 7.35353 3.86093 7.5852 4.02655 7.75473C4.10962 7.83977 4.17531 7.90777 4.21951 7.95447C4.24208 7.97832 4.25646 7.99388 4.26405 8.00237C4.26856 8.00741 4.2666 8.00541 4.26172 7.99938C4.26012 7.9974 4.25104 7.98621 4.2401 7.97001C4.23514 7.96267 4.22283 7.94414 4.20983 7.91866C4.20903 7.91708 4.15557 7.82284 4.15557 7.69242H5.15557ZM4.96208 8.24712C5.00427 8.15621 5.04321 8.06928 5.0723 8.00124C5.0866 7.96779 5.10008 7.93529 5.1107 7.90768C5.11577 7.89451 5.12227 7.87706 5.12823 7.85868C5.1311 7.84981 5.13575 7.83494 5.14018 7.81701C5.14175 7.81068 5.15557 7.75861 5.15557 7.69242H4.15557C4.15557 7.65396 4.16015 7.62422 4.1623 7.61141C4.16489 7.596 4.1677 7.58391 4.16945 7.57687C4.17288 7.56298 4.17603 7.55318 4.17695 7.55035C4.179 7.54403 4.17974 7.5425 4.17738 7.54863C4.17314 7.55965 4.16511 7.57936 4.15282 7.60811C4.12873 7.66444 4.09416 7.74178 4.05503 7.8261L4.96208 8.24712ZM4.75652 8.7551C4.79307 8.64802 4.88906 8.41394 4.96647 8.23739L4.05064 7.83582C3.97164 8.01598 3.86117 8.28254 3.81014 8.43204L4.75652 8.7551ZM4.67443 8.99197L4.75576 8.7573L3.8109 8.42984L3.72956 8.66451L4.67443 8.99197ZM1.54898 9.3595L4.20788 9.32821L4.19611 8.32828L1.53721 8.35957L1.54898 9.3595ZM1.54482 9.43828C1.53363 9.45343 1.53219 9.44881 1.56533 9.42472C1.60015 9.39941 1.66253 9.36021 1.7713 9.30441L1.31489 8.41465C1.05577 8.54756 0.86534 8.67514 0.740567 8.844L1.54482 9.43828ZM1.50737 9.50303C1.50291 9.52001 1.49958 9.52637 1.50289 9.51856C1.5053 9.51286 1.50973 9.50323 1.5163 9.49044C1.53007 9.46361 1.54552 9.4379 1.55585 9.42275L0.729545 8.85953C0.670737 8.9458 0.577365 9.10764 0.540281 9.2486L1.50737 9.50303ZM1.50192 11.0655C1.4988 10.5697 1.4996 10.1673 1.50345 9.88162C1.50538 9.73837 1.50804 9.62735 1.5112 9.54973C1.51279 9.51055 1.51436 9.48362 1.51568 9.46704C1.51829 9.43408 1.5182 9.46339 1.50622 9.50734L0.541436 9.24429C0.524762 9.30544 0.520274 9.36947 0.518806 9.38797C0.516041 9.42284 0.513849 9.46412 0.51202 9.50912C0.508332 9.59989 0.50552 9.72119 0.50354 9.86815C0.499568 10.1629 0.498801 10.5725 0.50194 11.0717L1.50192 11.0655ZM1.51131 12.6489L1.50192 11.0656L0.501939 11.0716L0.511323 12.6548L1.51131 12.6489ZM1.62162 12.6166C1.59513 12.6012 1.58662 12.5943 1.57193 12.5786C1.54866 12.5537 1.50806 12.5024 1.43446 12.3855L0.588165 12.9182C0.769513 13.2063 0.903436 13.3562 1.12048 13.4819L1.62162 12.6166ZM1.78865 12.7107L1.61661 12.6137L1.12549 13.4848L1.29754 13.5818L1.78865 12.7107ZM4.20788 12.6776L1.54898 12.6463L1.53721 13.6462L4.19611 13.6775L4.20788 12.6776ZM4.96514 13.7623C4.89294 13.6005 4.79508 13.3638 4.6747 13.0146L3.7293 13.3405C3.85916 13.7172 3.96775 13.9811 4.05196 14.1698L4.96514 13.7623ZM5.15557 14.3102C5.15557 14.2634 5.14885 14.2271 5.14648 14.2147C5.14323 14.1977 5.13973 14.1841 5.1375 14.1758C5.13304 14.1593 5.12851 14.1456 5.12588 14.1379C5.12031 14.1216 5.11424 14.1057 5.10945 14.0935C5.09935 14.0678 5.08637 14.0367 5.0723 14.0038C5.04374 13.9369 5.00528 13.8502 4.96348 13.7586L4.05362 14.1735C4.09315 14.2602 4.12821 14.3393 4.15282 14.3969C4.16534 14.4262 4.17386 14.4469 4.17863 14.459C4.18126 14.4657 4.18096 14.4653 4.17931 14.4604C4.17863 14.4584 4.17559 14.4495 4.17213 14.4367C4.1704 14.4303 4.16728 14.4182 4.16429 14.4026C4.16276 14.3946 4.16079 14.3832 4.15914 14.3695C4.15757 14.3565 4.15557 14.3358 4.15557 14.3102H5.15557ZM4.08638 15.6118C4.34059 15.3575 4.57291 15.1228 4.74227 14.949C4.82662 14.8625 4.89709 14.7893 4.9473 14.7358C4.97185 14.7096 4.99477 14.6847 5.01289 14.664C5.02116 14.6546 5.03376 14.64 5.04629 14.6238C5.05176 14.6167 5.06438 14.6002 5.07792 14.5786C5.08437 14.5683 5.09733 14.547 5.11031 14.5185C5.11626 14.5054 5.15557 14.4231 5.15557 14.3102H4.15557C4.15557 14.1978 4.19469 14.1162 4.20024 14.104C4.21281 14.0764 4.22517 14.0562 4.23081 14.0472C4.24274 14.0282 4.25297 14.015 4.25526 14.012C4.26145 14.004 4.26462 14.0006 4.26052 14.0053C4.25392 14.0128 4.24037 14.0277 4.218 14.0516C4.17437 14.0981 4.10915 14.1659 4.02615 14.2511C3.8608 14.4207 3.63172 14.6522 3.37918 14.9048L4.08638 15.6118ZM3.22074 16.4985C3.2019 16.5413 3.18313 16.5639 3.19258 16.551C3.19652 16.5456 3.20624 16.5331 3.22445 16.5114C3.26055 16.4686 3.31598 16.4067 3.394 16.3231C3.54922 16.1569 3.77862 15.9212 4.08727 15.6109L3.37829 14.9057C3.06757 15.2181 2.82931 15.4627 2.66312 15.6406C2.58044 15.7292 2.51172 15.8053 2.45954 15.8673C2.43362 15.8981 2.40817 15.9296 2.38583 15.9601C2.369 15.9831 2.33282 16.0334 2.30538 16.0958L3.22074 16.4985ZM3.21614 16.5725C3.21614 16.5704 3.21633 16.5631 3.21754 16.5508C3.21871 16.5389 3.22053 16.5255 3.22288 16.5119C3.22526 16.4982 3.22779 16.4866 3.22993 16.4781C3.23236 16.4684 3.23297 16.4681 3.23032 16.4751L2.2958 16.1192C2.24668 16.2482 2.21614 16.4314 2.21614 16.5725H3.21614ZM3.22732 16.6591C3.23187 16.6704 3.23203 16.6734 3.22967 16.6641C3.22774 16.6565 3.22527 16.6453 3.22288 16.6315C3.22052 16.6178 3.21868 16.6043 3.2175 16.5924C3.21692 16.5866 3.21656 16.5818 3.21636 16.5781C3.21615 16.5743 3.21614 16.5725 3.21614 16.5725H2.21614C2.21614 16.7072 2.24568 16.8975 2.29881 17.0304L3.22732 16.6591ZM4.26855 17.7154C3.89388 17.339 3.61873 17.0576 3.43405 16.8614C3.34127 16.7629 3.27524 16.69 3.23214 16.6395C3.21036 16.614 3.19829 16.5987 3.19291 16.5914C3.1802 16.5743 3.20267 16.6005 3.22357 16.6499L2.30256 17.0395C2.33206 17.1092 2.37349 17.1653 2.39032 17.188C2.41446 17.2205 2.4425 17.2547 2.4716 17.2888C2.53026 17.3575 2.6091 17.444 2.70597 17.5469C2.90058 17.7536 3.18379 18.0431 3.55987 18.4209L4.26855 17.7154ZM5.35684 18.7814C5.40314 18.8036 5.42697 18.8258 5.4035 18.8073C5.39202 18.7982 5.37249 18.7819 5.34337 18.7563C5.28573 18.7056 5.20497 18.6311 5.10163 18.5329C4.89575 18.3373 4.61217 18.0591 4.26781 17.7146L3.56061 18.4216C3.90757 18.7687 4.198 19.0537 4.41285 19.2578C4.51987 19.3595 4.61116 19.444 4.68275 19.507C4.71824 19.5382 4.75262 19.5675 4.78379 19.5921C4.80296 19.6072 4.85817 19.6512 4.92403 19.6829L5.35684 18.7814ZM5.42822 18.7947C5.42503 18.7947 5.41868 18.7945 5.40969 18.7934C5.40084 18.7924 5.39138 18.7909 5.3822 18.7889C5.37293 18.7869 5.36578 18.7848 5.36129 18.7833C5.35634 18.7817 5.35768 18.7817 5.36409 18.7849L4.91678 19.6793C5.07195 19.7569 5.26647 19.7947 5.42822 19.7947V18.7947ZM5.52401 18.7835C5.53647 18.7786 5.54007 18.7783 5.53058 18.7807C5.52291 18.7826 5.51126 18.7851 5.49671 18.7875C5.48235 18.7899 5.46774 18.7919 5.45444 18.7931C5.4407 18.7944 5.43181 18.7947 5.42822 18.7947V19.7947C5.56535 19.7947 5.75974 19.7663 5.89549 19.712L5.52401 18.7835ZM6.3987 17.9234C6.08841 18.2322 5.85299 18.4614 5.6867 18.6165C5.6031 18.6944 5.54137 18.7495 5.49869 18.7851C5.47716 18.8031 5.46489 18.8124 5.45996 18.816C5.44769 18.8248 5.47097 18.8059 5.51489 18.7873L5.90461 19.7082C5.96886 19.681 6.02049 19.6447 6.04469 19.6272C6.07624 19.6045 6.10857 19.5787 6.13988 19.5525C6.20287 19.4999 6.27975 19.4307 6.36859 19.3479C6.54717 19.1814 6.79192 18.9429 7.10413 18.6322L6.3987 17.9234ZM7.69923 16.8547C7.5863 16.8547 7.50395 16.8941 7.49088 16.9C7.46238 16.913 7.44104 16.926 7.43076 16.9324C7.40918 16.946 7.39265 16.9586 7.38558 16.9641C7.36938 16.9766 7.35477 16.9892 7.34532 16.9975C7.32463 17.0156 7.29977 17.0386 7.2736 17.0631C7.2201 17.1133 7.14693 17.1838 7.0604 17.2682C6.88669 17.4376 6.65203 17.67 6.39781 17.9243L7.10502 18.6313C7.35756 18.3787 7.58899 18.1495 7.75858 17.9841C7.84371 17.9011 7.9115 17.8359 7.958 17.7922C7.98184 17.7699 7.99673 17.7563 8.00428 17.7497C8.00896 17.7456 8.00558 17.7488 7.99758 17.755C7.99461 17.7573 7.98142 17.7675 7.96239 17.7794C7.95339 17.7851 7.93314 17.7974 7.90553 17.81C7.89334 17.8156 7.81168 17.8547 7.69923 17.8547V16.8547ZM8.25088 17.0469C8.15924 17.0051 8.07257 16.9666 8.00577 16.9381C7.97288 16.924 7.94174 16.911 7.91604 16.9009C7.90382 16.8961 7.88797 16.89 7.87163 16.8845C7.86392 16.8818 7.85023 16.8773 7.8337 16.8728C7.82546 16.8706 7.81178 16.8671 7.79483 16.8638C7.78241 16.8615 7.74607 16.8547 7.69923 16.8547V17.8547C7.67361 17.8547 7.65288 17.8527 7.63991 17.8512C7.62618 17.8495 7.61483 17.8475 7.6068 17.846C7.59118 17.843 7.57909 17.8399 7.5727 17.8382C7.55988 17.8347 7.55094 17.8316 7.54897 17.831C7.54411 17.8293 7.54367 17.829 7.55037 17.8316C7.5625 17.8364 7.58317 17.8449 7.61245 17.8575C7.66999 17.8821 7.74911 17.9171 7.83578 17.9567L8.25088 17.0469ZM8.75862 17.2539C8.65191 17.2175 8.41792 17.1215 8.2472 17.0452L7.83946 17.9583C8.01909 18.0386 8.28559 18.1491 8.43539 18.2002L8.75862 17.2539ZM8.99542 17.336L8.76081 17.2547L8.4332 18.1995L8.6678 18.2808L8.99542 17.336ZM9.36286 20.4622L9.33158 17.8026L8.33165 17.8143L8.36293 20.474L9.36286 20.4622ZM9.47548 20.4843C9.46695 20.4789 9.46509 20.4771 9.46475 20.4768C9.4641 20.4762 9.45876 20.4715 9.4475 20.4576C9.42107 20.4248 9.3768 20.36 9.29733 20.2206L8.42846 20.7156C8.60214 21.0204 8.72702 21.1933 8.93849 21.3279L9.47548 20.4843ZM9.62219 20.576L9.47204 20.4822L8.94194 21.3301L9.09209 21.424L9.62219 20.576ZM12.6542 20.5H9.35714V21.5H12.6542V20.5ZM12.6187 20.3897C12.6034 20.4162 12.5965 20.4247 12.5807 20.4394C12.5558 20.4627 12.5046 20.5033 12.3877 20.5769L12.9206 21.4231C13.2087 21.2417 13.3586 21.1077 13.4842 20.8906L12.6187 20.3897ZM12.7128 20.2226L12.6158 20.3947L13.4871 20.8856L13.584 20.7135L12.7128 20.2226ZM12.6797 17.8026L12.6485 20.4622L13.6484 20.474L13.6797 17.8143L12.6797 17.8026ZM13.649 17.086C13.3803 17.2012 13.1468 17.2958 13.0341 17.3301L13.3253 18.2868C13.5003 18.2335 13.7861 18.1153 14.043 18.0052L13.649 17.086ZM14.1307 16.8795L13.649 17.086L14.043 18.0051L14.5247 17.7986L14.1307 16.8795ZM16.4998 18.7901C16.5454 18.8102 16.5694 18.8306 16.557 18.8213C16.551 18.8167 16.5355 18.8043 16.5065 18.7788C16.4487 18.7282 16.3577 18.6436 16.2149 18.506C15.9307 18.2321 15.4607 17.7667 14.6817 16.9859L13.9738 17.6922C14.7526 18.4728 15.2288 18.9446 15.521 19.2261C15.6664 19.3662 15.771 19.4639 15.8467 19.5303C15.8844 19.5634 15.9201 19.5933 15.9534 19.6185C15.9804 19.639 16.032 19.6768 16.097 19.7054L16.4998 18.7901ZM16.58 18.7947C16.5777 18.7947 16.5697 18.7945 16.5562 18.7932C16.5432 18.7919 16.5286 18.79 16.5138 18.7875C16.4989 18.785 16.4864 18.7824 16.4774 18.7802C16.4669 18.7776 16.4676 18.7772 16.4765 18.7805L16.1204 19.715C16.2524 19.7653 16.4426 19.7947 16.58 19.7947V18.7947ZM16.6472 18.7849C16.6537 18.7817 16.6551 18.7816 16.6503 18.7832C16.6459 18.7847 16.6388 18.7867 16.6295 18.7887C16.6094 18.793 16.5908 18.7947 16.58 18.7947V19.7947C16.7437 19.7947 16.9385 19.7574 17.0945 19.6793L16.6472 18.7849ZM17.7435 17.7146C17.3991 18.0591 17.1156 18.3373 16.9097 18.5329C16.8063 18.6311 16.7256 18.7056 16.6679 18.7563C16.6388 18.7819 16.6193 18.7982 16.6078 18.8073C16.5843 18.8258 16.6082 18.8036 16.6545 18.7814L17.0873 19.6829C17.1531 19.6512 17.2084 19.6072 17.2275 19.5921C17.2587 19.5675 17.2931 19.5382 17.3286 19.507C17.4002 19.444 17.4914 19.3595 17.5985 19.2578C17.8133 19.0537 18.1037 18.7687 18.4507 18.4216L17.7435 17.7146ZM18.7877 16.6499C18.8086 16.6005 18.8311 16.5743 18.8184 16.5914C18.813 16.5987 18.801 16.614 18.7792 16.6395C18.7361 16.69 18.67 16.7629 18.5773 16.8614C18.3926 17.0576 18.1174 17.339 17.7428 17.7154L18.4514 18.4209C18.8275 18.0431 19.1107 17.7536 19.3053 17.5469C19.4022 17.444 19.4811 17.3575 19.5397 17.2888C19.5688 17.2547 19.5968 17.2205 19.621 17.188C19.6378 17.1653 19.6793 17.1092 19.7088 17.0395L18.7877 16.6499ZM18.7952 16.5725C18.7952 16.5725 18.7952 16.5743 18.795 16.5781C18.7948 16.5818 18.7944 16.5866 18.7938 16.5924C18.7926 16.6043 18.7908 16.6178 18.7884 16.6315C18.786 16.6453 18.7836 16.6565 18.7816 16.6641C18.7793 16.6734 18.7794 16.6704 18.784 16.659L19.7125 17.0304C19.7656 16.8975 19.7952 16.7072 19.7952 16.5725H18.7952ZM18.781 16.4751C18.7783 16.4681 18.779 16.4684 18.7814 16.4781C18.7835 16.4866 18.7861 16.4982 18.7884 16.5119C18.7908 16.5255 18.7926 16.5389 18.7938 16.5508C18.795 16.5631 18.7952 16.5704 18.7952 16.5725H19.7952C19.7952 16.4314 19.7646 16.2482 19.7155 16.1192L18.781 16.4751ZM17.924 15.6109C18.2327 15.9212 18.4621 16.1569 18.6173 16.3231C18.6953 16.4067 18.7508 16.4686 18.7869 16.5114C18.8051 16.5331 18.8148 16.5456 18.8187 16.551C18.8282 16.5639 18.8094 16.5413 18.7906 16.4985L19.7059 16.0958C19.6785 16.0334 19.6423 15.9831 19.6255 15.9601C19.6031 15.9296 19.5777 15.8981 19.5518 15.8673C19.4996 15.8053 19.4309 15.7292 19.3482 15.6406C19.182 15.4627 18.9437 15.2181 18.633 14.9057L17.924 15.6109ZM16.8557 14.3102C16.8557 14.4231 16.8951 14.5054 16.901 14.5185C16.914 14.547 16.9269 14.5683 16.9334 14.5786C16.9469 14.6002 16.9596 14.6167 16.965 14.6238C16.9776 14.64 16.9902 14.6546 16.9984 14.664C17.0165 14.6847 17.0395 14.7096 17.064 14.7358C17.1142 14.7893 17.1847 14.8625 17.269 14.949C17.4384 15.1228 17.6707 15.3575 17.9249 15.6118L18.6321 14.9048C18.3796 14.6522 18.1505 14.4207 17.9852 14.2511C17.9022 14.1659 17.8369 14.0981 17.7933 14.0516C17.7709 14.0277 17.7574 14.0128 17.7508 14.0053C17.7467 14.0006 17.7499 14.004 17.7561 14.012C17.7583 14.015 17.7686 14.0282 17.7805 14.0472C17.7861 14.0562 17.7985 14.0764 17.8111 14.104C17.8166 14.1162 17.8557 14.1978 17.8557 14.3102H16.8557ZM17.0417 13.7653C17.0024 13.8549 16.9652 13.9406 16.9376 14.0062C16.924 14.0385 16.9113 14.0693 16.9014 14.0945C16.8967 14.1065 16.8908 14.1222 16.8853 14.1384C16.8827 14.146 16.8782 14.1596 16.8738 14.176C16.8715 14.1842 16.8681 14.1978 16.8648 14.2148C16.8625 14.2271 16.8557 14.2634 16.8557 14.3102H17.8557C17.8557 14.3358 17.8537 14.3565 17.8522 14.3695C17.8505 14.3832 17.8486 14.3945 17.847 14.4025C17.8441 14.4181 17.8409 14.4302 17.8392 14.4365C17.8358 14.4492 17.8328 14.4581 17.8322 14.46C17.8306 14.4646 17.8303 14.4649 17.833 14.4579C17.838 14.4453 17.8466 14.4243 17.8591 14.3944C17.8839 14.3357 17.9187 14.2555 17.9576 14.1668L17.0417 13.7653ZM17.2548 13.2507C17.2185 13.3569 17.1229 13.5901 17.0461 13.7555L17.9532 14.1765C18.0391 13.9915 18.1499 13.7241 18.2012 13.5737L17.2548 13.2507ZM17.3369 13.0138L17.2556 13.2485L18.2004 13.5759L18.2817 13.3413L17.3369 13.0138ZM20.4623 12.6463L17.8034 12.6776L17.8152 13.6775L20.4741 13.6462L20.4623 12.6463ZM20.4843 12.5337C20.4789 12.5422 20.4771 12.5441 20.4768 12.5444C20.4762 12.5451 20.4715 12.5504 20.4575 12.5617C20.4248 12.5881 20.36 12.6324 20.2206 12.7119L20.7158 13.5806C21.0206 13.4069 21.1935 13.282 21.328 13.0704L20.4843 12.5337ZM20.576 12.3869L20.4821 12.5371L21.3302 13.067L21.424 12.9168L20.576 12.3869ZM20.5 9.35391V12.6519H21.5V9.35391H20.5ZM20.3897 9.38921C20.4162 9.40455 20.4247 9.41145 20.4394 9.42719C20.4627 9.45211 20.5033 9.50334 20.5769 9.62027L21.4231 9.08756C21.2418 8.79946 21.1079 8.64954 20.8908 8.52384L20.3897 9.38921ZM20.2227 9.29508L20.3947 9.39208L20.8858 8.52098L20.7138 8.42398L20.2227 9.29508ZM17.8034 9.32821L20.4623 9.3595L20.4741 8.35957L17.8152 8.32828L17.8034 9.32821ZM17.0448 8.23739C17.1182 8.40466 17.2164 8.64233 17.3366 8.9912L18.282 8.66529C18.152 8.28823 18.0437 8.02526 17.9607 7.83583L17.0448 8.23739ZM16.8557 7.69555C16.8557 7.74236 16.8625 7.77868 16.8648 7.7911C16.8681 7.80806 16.8716 7.82174 16.8738 7.83C16.8783 7.84655 16.8828 7.86026 16.8855 7.86801C16.8911 7.88443 16.8972 7.90034 16.902 7.91263C16.9122 7.9385 16.9253 7.96971 16.9395 8.00268C16.9683 8.0696 17.007 8.15611 17.0492 8.24712L17.9563 7.8261C17.9172 7.74188 17.8824 7.66412 17.858 7.60745C17.8456 7.57862 17.8372 7.5582 17.8325 7.54632C17.8299 7.53975 17.8303 7.54026 17.832 7.54521C17.8326 7.54722 17.8357 7.55619 17.8392 7.56903C17.8409 7.57543 17.844 7.58753 17.847 7.60316C17.8486 7.61119 17.8505 7.62253 17.8522 7.63625C17.8537 7.64922 17.8557 7.66994 17.8557 7.69555H16.8557ZM17.9249 6.39396C17.6707 6.64824 17.4384 6.88297 17.269 7.05674C17.1847 7.14328 17.1142 7.21647 17.064 7.26999C17.0395 7.29617 17.0165 7.32104 16.9984 7.34174C16.9902 7.35118 16.9776 7.3658 16.965 7.382C16.9596 7.38907 16.9469 7.4056 16.9334 7.42718C16.9269 7.43746 16.914 7.45879 16.901 7.48729C16.8951 7.50036 16.8557 7.58268 16.8557 7.69555H17.8557C17.8557 7.80793 17.8166 7.88956 17.8111 7.90174C17.7985 7.92935 17.7861 7.9496 17.7805 7.9586C17.7686 7.97762 17.7583 7.99081 17.7561 7.99378C17.7499 8.00179 17.7467 8.00516 17.7508 8.00048C17.7574 7.99293 17.7709 7.97803 17.7933 7.95419C17.8369 7.90768 17.9022 7.83987 17.9852 7.75471C18.1505 7.58507 18.3796 7.35358 18.6321 7.10097L17.9249 6.39396ZM18.7877 5.51074C18.8063 5.46684 18.8253 5.44357 18.8164 5.45584C18.8129 5.46078 18.8035 5.47305 18.7855 5.49458C18.7499 5.53728 18.6948 5.59903 18.6169 5.68265C18.462 5.84899 18.2328 6.08447 17.924 6.39485L18.633 7.10008C18.9437 6.78779 19.1821 6.54297 19.3486 6.36434C19.4314 6.27547 19.5005 6.19857 19.5531 6.13557C19.5793 6.10425 19.6051 6.07191 19.6278 6.04036C19.6452 6.01615 19.6816 5.96452 19.7088 5.90028L18.7877 5.51074ZM18.7952 5.4239C18.7952 5.42751 18.7949 5.43641 18.7936 5.45017C18.7923 5.46348 18.7904 5.47811 18.788 5.49248C18.7856 5.50704 18.783 5.5187 18.7811 5.52638C18.7787 5.53589 18.779 5.5323 18.784 5.51985L19.7125 5.89117C19.7668 5.75543 19.7952 5.56103 19.7952 5.4239H18.7952ZM18.7854 5.3596C18.7822 5.3532 18.7821 5.35187 18.7838 5.35683C18.7853 5.36134 18.7873 5.3685 18.7893 5.37779C18.7913 5.38698 18.7929 5.39645 18.7939 5.40532C18.7949 5.41432 18.7952 5.42069 18.7952 5.4239H19.7952C19.7952 5.26217 19.7574 5.06765 19.6798 4.91247L18.7854 5.3596ZM17.7153 4.26298C18.0597 4.60743 18.3378 4.89109 18.5334 5.09702C18.6315 5.2004 18.706 5.28118 18.7567 5.33883C18.7823 5.36796 18.7986 5.3875 18.8077 5.39899C18.8262 5.42246 18.804 5.39864 18.7818 5.35235L19.6834 4.91972C19.6518 4.85388 19.6078 4.79867 19.5927 4.77949C19.5681 4.74831 19.5388 4.71392 19.5076 4.67842C19.4446 4.60681 19.3602 4.5155 19.2585 4.40845C19.0545 4.19354 18.7695 3.90302 18.4226 3.55597L17.7153 4.26298ZM16.6476 3.21564C16.5994 3.19446 16.5739 3.17223 16.5917 3.1856C16.5993 3.19138 16.6149 3.20383 16.6404 3.22583C16.691 3.26935 16.764 3.33576 16.8624 3.42865C17.0583 3.61359 17.3399 3.88902 17.7161 4.26371L18.4218 3.55523C18.0441 3.17897 17.7548 2.89587 17.5488 2.70142C17.4462 2.60462 17.3604 2.52612 17.2927 2.46785C17.2591 2.43895 17.2257 2.41129 17.1942 2.38753C17.1728 2.37136 17.1181 2.33015 17.0504 2.30037L16.6476 3.21564ZM16.5737 3.21107C16.5737 3.21107 16.5755 3.21108 16.5793 3.21129C16.583 3.2115 16.5879 3.21186 16.5937 3.21244C16.6057 3.21363 16.6195 3.21549 16.6337 3.21792C16.6479 3.22037 16.66 3.22297 16.6688 3.22518C16.679 3.22771 16.6788 3.22823 16.6709 3.22523L17.027 2.29078C16.8973 2.24133 16.7108 2.21107 16.5737 2.21107V3.21107ZM16.4765 3.22523C16.4695 3.22789 16.4698 3.22728 16.4794 3.22486C16.4879 3.22271 16.4995 3.22018 16.5132 3.21781C16.5268 3.21545 16.5402 3.21364 16.5521 3.21247C16.5644 3.21126 16.5716 3.21107 16.5737 3.21107V2.21107C16.4326 2.21107 16.2494 2.24163 16.1204 2.29078L16.4765 3.22523ZM15.6126 4.08239C15.9228 3.77365 16.1585 3.54419 16.3246 3.38892C16.4082 3.31088 16.47 3.25543 16.5129 3.21933C16.5345 3.20112 16.5471 3.19139 16.5524 3.18746C16.5653 3.178 16.5427 3.19679 16.4999 3.21564L16.097 2.30037C16.0346 2.32783 15.9843 2.36403 15.9613 2.38086C15.9308 2.40321 15.8993 2.42866 15.8685 2.4546C15.8066 2.50679 15.7304 2.57553 15.6419 2.65824C15.464 2.82447 15.2195 3.0628 14.9072 3.3736L15.6126 4.08239ZM14.3152 5.15104C14.4461 5.15104 14.541 5.09733 14.5433 5.09613C14.5696 5.08272 14.5891 5.0698 14.5977 5.06403C14.6162 5.05148 14.6306 5.03999 14.6365 5.03522C14.6504 5.024 14.6633 5.01259 14.6721 5.00474C14.6912 4.98759 14.7149 4.9655 14.7406 4.94114C14.7931 4.89149 14.8655 4.82147 14.9517 4.73717C15.1248 4.56803 15.3592 4.33584 15.6135 4.0815L14.9063 3.37449C14.6538 3.62704 14.4222 3.85638 14.2527 4.02204C14.1677 4.10513 14.0997 4.17084 14.053 4.21506C14.0292 4.23763 14.0136 4.25201 14.0052 4.2596C14.0001 4.26412 14.0021 4.26215 14.0081 4.25727C14.0101 4.25568 14.0213 4.24659 14.0375 4.23563C14.0448 4.23067 14.0634 4.21836 14.0889 4.20535C14.0904 4.20455 14.1847 4.15104 14.3152 4.15104V5.15104ZM13.7605 4.95746C13.8514 4.99967 13.9383 5.03862 14.0063 5.06772C14.0398 5.08203 14.0723 5.09551 14.0999 5.10613C14.113 5.1112 14.1305 5.11771 14.1489 5.12367C14.1577 5.12655 14.1726 5.1312 14.1906 5.13564C14.1969 5.13721 14.249 5.15104 14.3152 5.15104V4.15104C14.3537 4.15104 14.3834 4.15562 14.3963 4.15778C14.4117 4.16037 14.4238 4.16319 14.4308 4.16493C14.4447 4.16837 14.4545 4.17153 14.4574 4.17245C14.4637 4.1745 14.4652 4.17524 14.4591 4.17288C14.4481 4.16864 14.4284 4.16061 14.3996 4.14832C14.3433 4.12423 14.266 4.08965 14.1817 4.0505L13.7605 4.95746ZM13.2425 4.74511C13.3567 4.78689 13.5961 4.88547 13.7702 4.96185L14.172 4.04611C13.9895 3.96604 13.7285 3.85811 13.5861 3.80602L13.2425 4.74511ZM13.0159 4.66662L13.2505 4.74797L13.5781 3.80316L13.3435 3.72181L13.0159 4.66662ZM12.6485 1.54359L12.6797 4.2001L13.6797 4.18832L13.6484 1.53181L12.6485 1.54359ZM12.5358 1.52144C12.5444 1.52687 12.5462 1.52867 12.5466 1.52897C12.5472 1.52954 12.5526 1.53425 12.5638 1.5482C12.5902 1.58096 12.6345 1.64573 12.714 1.78522L13.5829 1.29019C13.4092 0.98535 13.2843 0.812461 13.0728 0.677846L12.5358 1.52144ZM12.3891 1.42974L12.5393 1.52361L13.0694 0.675678L12.9192 0.581808L12.3891 1.42974ZM9.51532 1.49895C9.45935 1.52321 9.42287 1.51962 9.49147 1.51452C9.55644 1.50969 9.67461 1.50554 9.89774 1.503C10.3395 1.49797 11.1459 1.4995 12.6521 1.50577L12.6563 0.505778C11.1532 0.499527 10.3377 0.497929 9.88635 0.503068C9.66294 0.505612 9.51679 0.509877 9.41734 0.51727C9.32151 0.524393 9.22051 0.536836 9.11762 0.581435L9.51532 1.49895ZM9.91065 8.13399C10.027 8.08696 10.2518 8.01985 10.3898 7.99065L10.1828 7.01232C9.99543 7.05196 9.71351 7.13504 9.53577 7.20691L9.91065 8.13399ZM9.50598 8.32134C9.58914 8.27282 9.77279 8.18689 9.90208 8.13736L9.54434 7.20354C9.37958 7.26666 9.14407 7.37472 9.002 7.45762L9.50598 8.32134ZM9.14739 8.5554C9.24404 8.48289 9.40644 8.37678 9.49686 8.32653L9.01112 7.45243C8.87632 7.52734 8.67585 7.65903 8.54728 7.75548L9.14739 8.5554ZM8.8037 8.86536C8.89896 8.76478 9.05954 8.62131 9.14739 8.5554L8.54728 7.75548C8.40991 7.85854 8.20763 8.04048 8.07766 8.17771L8.8037 8.86536ZM8.52852 9.18132C8.57041 9.12266 8.69502 8.97716 8.79909 8.87016L8.08227 8.17291C7.96112 8.29746 7.79794 8.48363 7.71471 8.60019L8.52852 9.18132ZM8.33037 9.49336C8.38468 9.39558 8.47636 9.25188 8.52343 9.18832L7.7198 8.59319C7.64174 8.69859 7.52697 8.88032 7.45615 9.00782L8.33037 9.49336ZM8.14124 9.89872C8.19075 9.76939 8.27666 9.58567 8.32518 9.50247L7.46134 8.99871C7.37847 9.1408 7.27044 9.37636 7.20735 9.54116L8.14124 9.89872ZM7.996 10.4014C8.02549 10.2512 8.09242 10.0197 8.13786 9.90729L7.21072 9.53259C7.13729 9.71428 7.05407 10.0084 7.01474 10.2087L7.996 10.4014ZM7.93968 11.0028C7.93968 10.7766 7.95881 10.5874 7.99567 10.4031L7.01508 10.207C6.96435 10.4607 6.93968 10.7159 6.93968 11.0028H7.93968ZM7.99539 11.5981C7.95886 11.418 7.93968 11.2293 7.93968 11.0028H6.93968C6.93968 11.2895 6.9643 11.5452 7.01535 11.7969L7.99539 11.5981ZM8.13786 12.0984C8.09248 11.9861 8.02569 11.755 7.99632 11.6027L7.01443 11.7922C7.05387 11.9966 7.13724 12.2912 7.21072 12.4731L8.13786 12.0984ZM8.32518 12.5032C8.27666 12.42 8.19075 12.2363 8.14124 12.1069L7.20735 12.4645C7.27044 12.6293 7.37847 12.8648 7.46134 13.0069L8.32518 12.5032ZM8.57114 12.8727C8.48959 12.7666 8.37885 12.5996 8.33037 12.5123L7.45615 12.9978C7.53279 13.1358 7.6723 13.3443 7.77844 13.4823L8.57114 12.8727ZM8.86753 13.2073C8.78875 13.1333 8.6505 12.9767 8.57231 12.8742L7.77727 13.4808C7.88051 13.6161 8.05507 13.8161 8.18275 13.9361L8.86753 13.2073ZM9.17435 13.4689C9.10322 13.4168 8.96003 13.2941 8.86716 13.207L8.18312 13.9364C8.29045 14.0371 8.46633 14.1898 8.58288 14.2753L9.17435 13.4689ZM9.49686 13.6791C9.40289 13.6269 9.25491 13.5306 9.18289 13.4753L8.57435 14.2689C8.69001 14.3576 8.87986 14.4803 9.01112 14.5532L9.49686 13.6791ZM9.90208 13.8683C9.77279 13.8188 9.58914 13.7328 9.50598 13.6843L9.002 14.548C9.14407 14.6309 9.37958 14.739 9.54434 14.8021L9.90208 13.8683ZM10.4061 14.0132C10.2539 13.9838 10.0229 13.917 9.91065 13.8717L9.53577 14.7987C9.71756 14.8722 10.0121 14.9556 10.2165 14.9951L10.4061 14.0132ZM11.0057 14.0699C10.7793 14.0699 10.5908 14.0507 10.4107 14.0141L10.2118 14.9942C10.4635 15.0452 10.7191 15.0699 11.0057 15.0699V14.0699ZM11.6052 14.0139C11.421 14.0507 11.2319 14.0699 11.0057 14.0699V15.0699C11.2926 15.0699 11.5477 15.0452 11.8014 14.9944L11.6052 14.0139ZM12.1008 13.8717C11.9884 13.9171 11.757 13.984 11.6069 14.0135L11.7997 14.9948C12 14.9554 12.294 14.8722 12.4757 14.7987L12.1008 13.8717ZM12.5055 13.6843C12.4223 13.7328 12.2387 13.8188 12.1094 13.8683L12.4671 14.8021C12.6319 14.739 12.8674 14.6309 13.0095 14.548L12.5055 13.6843ZM12.8286 13.4753C12.7566 13.5306 12.6086 13.6269 12.5146 13.6791L13.0004 14.5532C13.1316 14.4803 13.3215 14.3576 13.4371 14.2689L12.8286 13.4753ZM13.1443 13.207C13.0514 13.2941 12.9083 13.4168 12.8371 13.4689L13.4286 14.2753C13.5451 14.1898 13.721 14.0371 13.8284 13.9364L13.1443 13.207ZM13.4392 12.8742C13.361 12.9767 13.2227 13.1333 13.1439 13.2073L13.8287 13.9361C13.9564 13.8161 14.131 13.6161 14.2342 13.4808L13.4392 12.8742ZM13.6811 12.5123C13.6326 12.5996 13.5219 12.7666 13.4403 12.8727L14.233 13.4823C14.3392 13.3443 14.4787 13.1358 14.5553 12.9978L13.6811 12.5123ZM13.8702 12.1069C13.8207 12.2363 13.7348 12.42 13.6863 12.5032L14.5501 13.0069C14.633 12.8648 14.741 12.6293 14.8041 12.4645L13.8702 12.1069ZM14.0152 11.6027C13.9858 11.755 13.919 11.9861 13.8736 12.0984L14.8008 12.4731C14.8742 12.2912 14.9576 11.9966 14.9971 11.7922L14.0152 11.6027ZM14.0718 11.0028C14.0718 11.2293 14.0526 11.418 14.0161 11.5981L14.9961 11.7969C15.0472 11.5452 15.0718 11.2895 15.0718 11.0028H14.0718ZM14.0158 10.4031C14.0527 10.5874 14.0718 10.7766 14.0718 11.0028H15.0718C15.0718 10.7159 15.0471 10.4607 14.9964 10.207L14.0158 10.4031ZM13.8736 9.90728C13.9191 10.0197 13.986 10.2512 14.0155 10.4014L14.9967 10.2087C14.9574 10.0084 14.8742 9.71428 14.8008 9.53259L13.8736 9.90728ZM13.6863 9.50247C13.7348 9.58566 13.8207 9.76939 13.8702 9.89872L14.8041 9.54115C14.741 9.37636 14.633 9.1408 14.5501 8.9987L13.6863 9.50247ZM13.4523 9.14377C13.5248 9.24045 13.6309 9.4029 13.6811 9.49336L14.5553 9.00782C14.4804 8.87299 14.3488 8.67248 14.2524 8.54387L13.4523 9.14377ZM13.1535 8.80816C13.2515 8.90336 13.3889 9.05608 13.4469 9.13651L14.2577 8.55113C14.1531 8.40628 13.9714 8.20855 13.8504 8.09098L13.1535 8.80816ZM12.8371 8.5367C12.9096 8.58984 13.061 8.71835 13.1537 8.80831L13.8503 8.09083C13.7302 7.97427 13.5438 7.81491 13.4286 7.73038L12.8371 8.5367ZM12.4736 8.30218C12.5991 8.3757 12.7609 8.47843 12.8286 8.5303L13.4371 7.73678C13.3171 7.64472 13.1098 7.51591 12.9788 7.43923L12.4736 8.30218ZM12.0704 8.11843C12.183 8.15939 12.3773 8.24827 12.4815 8.30675L12.9709 7.43466C12.8186 7.34921 12.5749 7.23783 12.4123 7.17867L12.0704 8.11843ZM11.5935 7.98999C11.7359 8.01637 11.9594 8.07804 12.0704 8.11843L12.4123 7.17867C12.248 7.11893 11.971 7.04292 11.7756 7.00672L11.5935 7.98999ZM10.9895 7.93887C11.2364 7.93607 11.4125 7.95283 11.5837 7.98808L11.7854 7.00863C11.5311 6.95627 11.2819 6.93549 10.9782 6.93894L10.9895 7.93887ZM10.3844 7.99177C10.5509 7.95846 10.7397 7.93891 10.9838 7.93891V6.93891C10.6837 6.93891 10.4283 6.96316 10.1882 7.0112L10.3844 7.99177Z" fill="#848484"/>
</svg>
