<svg width="36" height="36" viewBox="0 0 36 36" fill="none" xmlns="http://www.w3.org/2000/svg">
<path d="M24.6618 16.1238L20.3422 16.0665L19.7879 16.6303C19.7593 30.7358 19.7688 30.8409 19.9599 31.1085L20.1511 31.3665C24.5184 31.3665 24.6522 31.357 24.8338 31.1754C25.0249 30.9843 25.0249 30.8505 25.0249 23.7977C25.0345 16.8023 25.0249 16.5921 24.8433 16.3627L24.6618 16.1238Z" fill="#848484"/>
<path d="M13.4806 10.8199L11.3495 10.8295L10.8908 11.2978L10.8717 30.946C11.3017 31.3665 11.3686 31.3665 13.5284 31.3665C15.6308 31.3761 15.7646 31.357 15.9462 31.185C16.1373 30.9938 16.1373 30.86 16.1373 21.1028V11.2118C15.6308 10.8295 15.4779 10.8199 13.4806 10.8199Z" fill="#848484"/>
<path d="M33.5971 5.12424C33.406 5.02867 32.8422 5 31.3513 5C30.2619 5.00956 29.3062 5.03823 29.2298 5.0669C29.1533 5.09557 29.01 5.19113 28.9144 5.26758C28.752 5.42049 28.7424 6.07033 28.7424 18.2358C28.7424 30.3918 28.752 31.0416 28.9144 31.2041C29.0673 31.3474 29.3349 31.3665 31.3322 31.3761H31.3323C33.5398 31.3761 33.578 31.3761 33.7883 31.1563L33.9985 30.946C34.0081 11.2787 33.9698 5.49694 33.9316 5.41093C33.8934 5.32492 33.7405 5.20069 33.5971 5.12424Z" fill="#848484"/>
<path d="M4.6599 21.2653L2.47144 21.2366L2.00317 21.7144C1.99362 30.8696 1.99362 30.9938 2.18475 31.185C2.36632 31.357 2.50011 31.3761 4.62167 31.3761C6.73367 31.3761 6.87702 31.357 7.05859 31.185C7.24017 30.9938 7.24972 30.86 7.24972 26.3302C7.24972 21.6953 7.24972 21.6762 7.04903 21.4851C6.8579 21.3035 6.69544 21.2844 4.6599 21.2653Z" fill="#848484"/>
</svg>
