<svg width="26" height="26" viewBox="0 0 26 26" fill="none" xmlns="http://www.w3.org/2000/svg">
<rect x="0.5" y="0.5" width="25" height="25" rx="4.5" stroke="#848484"/>
<path d="M19 11L19 7M19 7H15M19 7L13.6667 12.3333M11.6667 8.33333H10.2C9.0799 8.33333 8.51984 8.33333 8.09202 8.55132C7.71569 8.74307 7.40973 9.04903 7.21799 9.42535C7 9.85318 7 10.4132 7 11.5333V15.8C7 16.9201 7 17.4802 7.21799 17.908C7.40973 18.2843 7.71569 18.5903 8.09202 18.782C8.51984 19 9.0799 19 10.2 19H14.4667C15.5868 19 16.1468 19 16.5746 18.782C16.951 18.5903 17.2569 18.2843 17.4487 17.908C17.6667 17.4802 17.6667 16.9201 17.6667 15.8V14.3333" stroke="#848484" stroke-linecap="square" stroke-linejoin="round"/>
</svg>
