<svg width="24" height="25" viewBox="0 0 24 25" fill="none" xmlns="http://www.w3.org/2000/svg">
<path d="M10.9481 0.897048C11.0168 0.845528 11.1242 0.794007 11.1843 0.776834C11.2444 0.755367 11.6179 0.74678 12.0215 0.751073C12.6869 0.75966 12.7642 0.768247 12.9016 0.854114C12.9832 0.905635 13.0948 1.02156 13.1463 1.11172C13.2236 1.24481 13.2537 1.41225 13.3052 2.00474C13.3395 2.40403 13.3996 3.05662 13.4383 3.45161C13.4726 3.85089 13.5327 4.4949 13.5671 4.88989C13.6057 5.28918 13.6701 6.03623 13.7174 6.55572C13.7646 7.07522 13.8333 7.83945 13.8676 8.25161C13.9063 8.66377 13.975 9.38077 14.0995 10.6774L14.2283 10.7933C14.327 10.8835 14.4043 10.9135 14.5331 10.9135C14.649 10.9135 14.7392 10.8835 14.8122 10.8148C14.8723 10.7632 14.9367 10.6602 14.9538 10.5915C14.9753 10.5185 14.9667 10.2051 14.9324 9.88309C14.9023 9.56538 14.8508 8.95572 14.8122 8.53068C14.7778 8.10564 14.7091 7.35429 14.6619 6.85626C14.619 6.35823 14.5503 5.61547 14.5116 5.20331C14.473 4.79114 14.4043 4.01834 14.3614 3.48596C14.3141 2.95358 14.2755 2.46843 14.2755 2.28381H15.4261C16.4909 2.2881 16.581 2.2924 16.7141 2.36968C16.7871 2.41691 16.8816 2.51136 16.9159 2.58435C16.9717 2.69597 16.9803 3.05662 16.9803 5.03157C16.9803 7.1525 16.9846 7.36288 17.0576 7.50456C17.0962 7.59043 17.1821 7.68918 17.2508 7.71923C17.3152 7.75358 17.4054 7.77934 17.4526 7.77934C17.4998 7.77934 17.5986 7.74928 17.6673 7.71494C17.7402 7.68059 17.8261 7.58614 17.8605 7.50027C17.912 7.37576 17.9249 7.06664 17.9249 5.67558C17.9249 4.60224 17.942 3.99258 17.9678 3.9797C17.9893 3.96682 18.1911 4.09132 18.4057 4.25447C18.6247 4.41762 18.9982 4.73533 19.2343 4.95859C19.4705 5.17755 19.8182 5.54249 20.0114 5.76574C20.2047 5.989 20.5095 6.3797 20.6941 6.64159C20.8787 6.90349 21.1578 7.33712 21.3123 7.6076C21.4669 7.87809 21.7159 8.38041 21.8619 8.72388C22.0079 9.06735 22.2054 9.60832 22.2998 9.92603C22.3986 10.2437 22.5231 10.7589 22.5832 11.0638C22.639 11.3686 22.6991 11.7679 22.712 11.9439C22.7292 12.1199 22.7463 12.3089 22.7592 12.3604C22.7721 12.4377 22.815 12.4634 22.9352 12.4849C23.0254 12.5021 23.18 12.5493 23.2787 12.5922C23.3818 12.6394 23.5363 12.7468 23.6265 12.8326C23.7166 12.9228 23.8369 13.0903 23.8927 13.2105C23.9957 13.4123 24 13.4638 24 14.1765C24 14.8892 23.9957 14.9407 23.8927 15.1425C23.8369 15.2584 23.708 15.4344 23.6136 15.5246C23.5191 15.6191 23.356 15.735 23.2487 15.7822C23.0555 15.8724 23.0469 15.8724 12.0896 15.8852L12.0859 15.8852C2.69624 15.8938 1.08623 15.8852 0.90161 15.8337C0.781395 15.7994 0.588193 15.6963 0.472272 15.6062C0.33059 15.4903 0.214669 15.3529 0.128801 15.1811C0 14.9278 0 14.9278 0 14.1765C0 13.4638 0.00429338 13.4123 0.107335 13.2105C0.163148 13.0903 0.283363 12.9228 0.373524 12.8326C0.463685 12.7468 0.618247 12.6394 0.716995 12.5922C0.820036 12.5493 0.974598 12.5021 1.06047 12.4849C1.18497 12.4634 1.22791 12.4377 1.24079 12.3604C1.25367 12.3089 1.27513 12.1114 1.28801 11.9225C1.30519 11.7335 1.3653 11.3386 1.42111 11.0423C1.48122 10.7461 1.56708 10.3725 1.61431 10.2051C1.66154 10.0377 1.7517 9.75 1.81181 9.56109C1.87191 9.37218 2.02648 8.97719 2.15957 8.68095C2.28837 8.38471 2.50304 7.95107 2.63184 7.71494C2.76064 7.4788 3.01395 7.07522 3.18998 6.81333C3.36601 6.55143 3.62791 6.19508 3.76959 6.01905C3.91556 5.84302 4.26333 5.46521 4.54669 5.18184C4.83435 4.89848 5.22934 4.53354 5.43113 4.37469C5.63292 4.21154 5.82183 4.06556 5.85188 4.05268C5.88623 4.03551 5.92916 4.05268 5.95063 4.08703C5.97209 4.12138 5.98927 4.90707 5.98927 5.82585C5.99356 7.07522 6.00644 7.51744 6.04508 7.56467C6.07513 7.60331 6.14383 7.66771 6.20394 7.70635C6.26404 7.74499 6.3542 7.77934 6.40572 7.77934C6.46154 7.77934 6.56458 7.74928 6.63327 7.71494C6.70626 7.68059 6.79213 7.58614 6.82648 7.50027C6.88229 7.37147 6.89088 6.98936 6.89517 2.64875L7.2644 2.28381H9.63864V2.44267C9.63864 2.53283 9.60859 2.91494 9.57424 3.29275C9.5356 3.67057 9.47978 4.31887 9.44544 4.73104C9.4068 5.1432 9.3424 5.88596 9.29517 6.38399C9.24794 6.88202 9.18354 7.62478 9.1449 8.03694C9.10626 8.44911 9.04615 9.10599 9.0161 9.49669C8.98175 9.88739 8.9517 10.3081 8.9517 10.4284C8.9517 10.6258 8.96887 10.6731 9.0805 10.7847C9.17925 10.8835 9.24794 10.9135 9.38104 10.9135C9.50555 10.9135 9.58712 10.8835 9.81896 10.6774L9.90054 9.81869C9.94347 9.34642 10.0208 8.49633 10.068 7.92961C10.1152 7.36288 10.1624 6.8305 10.1753 6.74893C10.1882 6.66735 10.2268 6.24231 10.2612 5.80438C10.2955 5.36646 10.3642 4.60653 10.4114 4.1085C10.4544 3.61047 10.536 2.77326 10.5832 2.24088C10.6476 1.5797 10.6991 1.22764 10.7463 1.12889C10.785 1.04732 10.8794 0.944275 10.9481 0.897048Z" fill="#848484"/>
<path d="M4.33631 18.1006C4.49946 18.0233 4.77424 17.9289 4.93739 17.8945C5.19499 17.843 6.23399 17.8344 12 17.8301C18.6118 17.8258 18.7707 17.8301 19.1184 17.9117C19.3116 17.9589 19.5864 18.0577 19.7281 18.1264C19.8698 18.1951 20.1059 18.3668 20.2562 18.5085C20.4322 18.6716 20.5739 18.8563 20.8229 19.3457V23.0423L20.6898 23.2999C20.6125 23.4416 20.4494 23.6563 20.3249 23.7722C20.1961 23.8924 20.0243 24.0298 19.9428 24.0813C19.8612 24.1328 19.6379 24.2273 19.1055 24.4162H17.5814C16.1174 24.4162 16.0401 24.4119 15.6708 24.3131C15.4605 24.2573 15.1513 24.1543 14.9839 24.0813C14.8165 24.0083 14.5589 23.8666 14.4043 23.7679C14.2497 23.6691 14.0007 23.4545 13.8462 23.2913C13.6916 23.1325 13.5027 22.892 13.4297 22.7632C13.3567 22.6344 13.258 22.4112 13.2107 22.2695C13.1592 22.1278 13.1077 21.8573 13.0905 21.6684C13.0648 21.4323 13.0261 21.2863 12.966 21.2004C12.9188 21.1318 12.8243 21.033 12.7599 20.9858C12.6483 20.9042 12.5796 20.8956 11.9356 20.8956C11.2916 20.8956 11.2229 20.9042 11.1113 20.9858C11.0469 21.033 10.9481 21.1403 10.8966 21.2219C10.8279 21.325 10.7893 21.4623 10.7721 21.6899C10.7549 21.8659 10.7077 22.1278 10.6648 22.2695C10.6218 22.4112 10.5188 22.643 10.4329 22.7847C10.347 22.9264 10.1667 23.1539 10.0336 23.2913C9.90054 23.4287 9.70304 23.6047 9.59571 23.6863C9.48837 23.7636 9.24794 23.9053 9.05903 24.004C8.87012 24.0985 8.52236 24.2273 8.28623 24.2917C7.85689 24.4119 7.85259 24.4119 6.37574 24.4119H6.37567C4.94597 24.4162 4.88587 24.4119 4.62826 24.3217C4.478 24.2659 4.26762 24.1801 4.15599 24.1285C4.04436 24.0727 3.83828 23.9224 3.6966 23.7936C3.55063 23.6563 3.38748 23.4502 3.1771 23.0423L3.16422 21.3464C3.15134 20.1572 3.16422 19.5818 3.19857 19.4144C3.22862 19.2856 3.3059 19.0838 3.3703 18.9636C3.4347 18.8477 3.61503 18.633 3.761 18.4956C3.92844 18.3411 4.15599 18.1865 4.33631 18.1006Z" fill="#848484"/>
<path d="M0.742755 18.852C0.807156 18.8262 0.918784 18.7876 0.987478 18.7704C1.06047 18.7532 1.41252 18.736 1.77317 18.7318C2.12952 18.7275 2.42576 18.7403 2.42576 18.7618C2.42576 18.779 2.39141 18.8906 2.35277 19.0065C2.29267 19.1869 2.27549 19.4702 2.23256 22.1836H1.61002C1.02612 22.1793 0.970304 22.175 0.751342 22.0677C0.62254 22.0033 0.437925 21.8702 0.347764 21.7672C0.253309 21.6641 0.137388 21.4967 0.090161 21.3894C0.00858676 21.2176 0 21.1103 0 20.4448C0 19.7149 0.00429338 19.6849 0.111628 19.4788C0.176029 19.3629 0.313417 19.1826 0.425045 19.0838C0.532379 18.9808 0.674061 18.8777 0.742755 18.852Z" fill="#848484"/>
<path d="M21.746 21.2949C21.746 20.3203 21.7331 19.4316 21.7159 19.3199L21.6902 19.1139H22.214C22.6218 19.1139 22.7807 19.131 22.961 19.1954C23.0812 19.2427 23.2787 19.3629 23.3903 19.4659C23.5106 19.5733 23.6479 19.7493 23.7123 19.8867C23.8283 20.1228 23.8283 20.1314 23.8283 21.1103C23.8283 22.0505 23.824 22.1063 23.7338 22.2824C23.678 22.3811 23.5621 22.5443 23.4676 22.6473C23.3689 22.7547 23.1971 22.8749 23.0297 22.9521C22.815 23.0466 22.6691 23.0809 22.3685 23.0981C22.1538 23.111 21.9306 23.1067 21.746 23.0638V21.2949Z" fill="#848484"/>
</svg>
